{
.appVersion = "1172";
date = "2018-10-24 03:37:09 +0000";
designer = foo;
designerURL = foo;
disablesNiceNames = 1;
familyName = Foo;
featurePrefixes = (
{
automatic = 1;
code = "languagesystem DFLT dflt;\012";
name = Languagesystems;
}
);
fontMaster = (
{
ascender = 700;
capHeight = 700;
customParameters = (
{
name = "Axis Location";
value = (
{
Axis = Weight;
Location = 400;
}
);
}
);
descender = -260;
id = "F6752803-E9E3-41A6-B92A-1FAB6ACE0E29";
visible = 1;
weightValue = 400;
widthValue = 5;
xHeight = 500;
},
{
ascender = 700;
capHeight = 700;
custom = Black;
customParameters = (
{
name = "Axis Location";
value = (
{
Axis = Weight;
Location = 900;
}
);
}
);
descender = -260;
iconName = Bold;
id = "B4B9BE83-58FC-4244-9D0D-7F6B370E71EE";
visible = 1;
weightValue = 900;
widthValue = 5;
xHeight = 500;
}
);
glyphs = (
{
color = 10;
glyphname = A;
lastChange = "2018-10-26 23:19:45 +0000";
layers = (
{
layerId = "F6752803-E9E3-41A6-B92A-1FAB6ACE0E29";
paths = (
{
closed = 1;
nodes = (
"590 80 LINE",
"360 690 LINE",
"350 700 LINE",
"260 700 LINE",
"250 690 LINE",
"20 80 LINE",
"20 10 LINE",
"30 0 LINE",
"90 0 LINE",
"100 10 LINE",
"160 160 LINE",
"180 170 LINE",
"430 170 LINE",
"450 160 LINE",
"510 10 LINE",
"520 0 LINE",
"580 0 LINE",
"590 10 LINE"
);
},
{
closed = 1;
nodes = (
"400 260 LINE",
"210 260 LINE",
"200 270 LINE",
"300 550 LINE",
"310 550 LINE",
"410 270 LINE"
);
}
);
width = 610;
},
{
layerId = "B4B9BE83-58FC-4244-9D0D-7F6B370E71EE";
paths = (
{
closed = 1;
nodes = (
"590 110 LINE",
"370 690 LINE",
"358 700 LINE",
"250 700 LINE",
"240 690 LINE",
"20 110 LINE",
"20 10 LINE",
"30 0 LINE",
"170 0 LINE",
"180 10 LINE",
"230 140 LINE",
"240 150 LINE",
"370 150 LINE",
"380 140 LINE",
"430 10 LINE",
"440 0 LINE",
"580 0 LINE",
"590 10 LINE"
);
},
{
closed = 1;
nodes = (
"340 270 LINE",
"270 270 LINE",
"260 280 LINE",
"300 410 LINE",
"310 410 LINE",
"350 280 LINE"
);
}
);
width = 610;
}
);
note = uni0041;
unicode = 0041;
},
{
color = 10;
glyphname = B;
lastChange = "2018-10-26 21:44:29 +0000";
layers = (
{
layerId = "F6752803-E9E3-41A6-B92A-1FAB6ACE0E29";
paths = (
{
closed = 1;
nodes = (
"390 0 LINE SMOOTH",
"482 0 OFFCURVE",
"600 95 OFFCURVE",
"600 200 QCURVE SMOOTH",
"600 310 OFFCURVE",
"490 360 QCURVE",
"490 370 LINE",
"580 432 OFFCURVE",
"580 510 QCURVE SMOOTH",
"580 608 OFFCURVE",
"460 700 OFFCURVE",
"370 700 QCURVE SMOOTH",
"90 700 LINE",
"80 690 LINE",
"80 10 LINE",
"90 0 LINE"
);
},
{
closed = 1;
nodes = (
"180 100 LINE",
"180 310 LINE",
"190 320 LINE",
"360 320 LINE SMOOTH",
"490 320 OFFCURVE",
"490 90 OFFCURVE",
"380 90 QCURVE SMOOTH",
"190 90 LINE"
);
},
{
closed = 1;
nodes = (
"180 420 LINE",
"180 600 LINE",
"190 610 LINE",
"350 610 LINE SMOOTH",
"460 610 OFFCURVE",
"460 410 OFFCURVE",
"360 410 QCURVE SMOOTH",
"190 410 LINE"
);
}
);
width = 640;
},
{
layerId = "B4B9BE83-58FC-4244-9D0D-7F6B370E71EE";
paths = (
{
closed = 1;
nodes = (
"430 0 LINE SMOOTH",
"521 0 OFFCURVE",
"630 85 OFFCURVE",
"630 190 QCURVE SMOOTH",
"630 323 OFFCURVE",
"510 360 QCURVE",
"510 370 LINE",
"610 409 OFFCURVE",
"610 520 QCURVE SMOOTH",
"610 611 OFFCURVE",
"494 700 OFFCURVE",
"410 700 QCURVE SMOOTH",
"90 700 LINE",
"80 690 LINE",
"80 10 LINE",
"90 0 LINE"
);
},
{
closed = 1;
nodes = (
"240 150 LINE",
"240 250 LINE",
"250 260 LINE",
"410 260 LINE SMOOTH",
"475 260 OFFCURVE",
"475 140 OFFCURVE",
"410 140 QCURVE SMOOTH",
"250 140 LINE"
);
},
{
closed = 1;
nodes = (
"240 450 LINE",
"240 540 LINE",
"250 550 LINE",
"390 550 LINE SMOOTH",
"454 550 OFFCURVE",
"453 440 OFFCURVE",
"390 440 QCURVE SMOOTH",
"250 440 LINE"
);
}
);
width = 710;
}
);
note = uni0042;
unicode = 0042;
},
{
color = 10;
glyphname = C;
lastChange = "2018-10-26 16:56:52 +0000";
layers = (
{
layerId = "F6752803-E9E3-41A6-B92A-1FAB6ACE0E29";
paths = (
{
closed = 1;
nodes = (
"544 -26 OFFCURVE",
"692 153 OFFCURVE",
"690 250 QCURVE",
"590 250 LINE",
"587 151 OFFCURVE",
"502 74 OFFCURVE",
"400 70 QCURVE SMOOTH",
"315 67 OFFCURVE",
"173 165 OFFCURVE",
"170 340 QCURVE SMOOTH",
"168 466 OFFCURVE",
"271 611 OFFCURVE",
"400 610 QCURVE SMOOTH",
"486 609 OFFCURVE",
"569 558 OFFCURVE",
"580 460 QCURVE",
"680 460 LINE",
"676 553 OFFCURVE",
"548 700 OFFCURVE",
"400 700 QCURVE SMOOTH",
"229 700 OFFCURVE",
"69 464 OFFCURVE",
"70 340 QCURVE SMOOTH",
"72 108 OFFCURVE",
"279 -15 OFFCURVE",
"400 -20 QCURVE SMOOTH"
);
}
);
width = 756;
},
{
layerId = "B4B9BE83-58FC-4244-9D0D-7F6B370E71EE";
paths = (
{
closed = 1;
nodes = (
"565 -23 OFFCURVE",
"699 124 OFFCURVE",
"700 260 QCURVE",
"530 260 LINE",
"526 202 OFFCURVE",
"466 124 OFFCURVE",
"400 120 QCURVE SMOOTH",
"303 114 OFFCURVE",
"234 196 OFFCURVE",
"240 330 QCURVE SMOOTH",
"244 422 OFFCURVE",
"348 525 OFFCURVE",
"400 530 QCURVE SMOOTH",
"479 538 OFFCURVE",
"518 456 OFFCURVE",
"530 400 QCURVE",
"700 400 LINE",
"689 506 OFFCURVE",
"548 698 OFFCURVE",
"400 700 QCURVE SMOOTH",
"179 703 OFFCURVE",
"62 412 OFFCURVE",
"60 330 QCURVE SMOOTH",
"55 136 OFFCURVE",
"236 -17 OFFCURVE",
"400 -20 QCURVE SMOOTH"
);
}
);
width = 749;
}
);
note = uni0043;
unicode = 0043;
},
{
color = 10;
glyphname = D;
lastChange = "2018-10-26 16:56:52 +0000";
layers = (
{
layerId = "F6752803-E9E3-41A6-B92A-1FAB6ACE0E29";
paths = (
{
closed = 1;
nodes = (
"340 0 LINE SMOOTH",
"509 0 OFFCURVE",
"674 196 OFFCURVE",
"670 350 QCURVE SMOOTH",
"666 523 OFFCURVE",
"505 700 OFFCURVE",
"340 700 QCURVE SMOOTH",
"80 700 LINE",
"80 0 LINE"
);
},
{
closed = 1;
nodes = (
"180 620 LINE",
"340 620 LINE SMOOTH",
"450 620 OFFCURVE",
"568 483 OFFCURVE",
"570 350 QCURVE SMOOTH",
"572 215 OFFCURVE",
"454 90 OFFCURVE",
"330 90 QCURVE SMOOTH",
"180 90 LINE"
);
}
);
width = 732;
},
{
associatedMasterId = "F6752803-E9E3-41A6-B92A-1FAB6ACE0E29";
layerId = "E19E28FB-F392-4449-BEDA-F0D541534F10";
name = "Aug 4 18, 23:34";
paths = (
{
closed = 1;
nodes = (
"77 0 LINE",
"345 0 LINE SMOOTH",
"429 0 OFFCURVE",
"555 53 OFFCURVE",
"641 150 OFFCURVE",
"684 286 OFFCURVE",
"684 369 QCURVE SMOOTH",
"684 453 OFFCURVE",
"643 591 OFFCURVE",
"560 690 OFFCURVE",
"435 744 OFFCURVE",
"352 744 QCURVE SMOOTH",
"77 744 LINE"
);
},
{
closed = 1;
nodes = (
"180 89 LINE",
"180 655 LINE",
"347 655 LINE SMOOTH",
"410 655 OFFCURVE",
"498 614 OFFCURVE",
"553 539 OFFCURVE",
"578 433 OFFCURVE",
"578 369 QCURVE SMOOTH",
"578 305 OFFCURVE",
"551 201 OFFCURVE",
"494 128 OFFCURVE",
"404 89 OFFCURVE",
"341 89 QCURVE SMOOTH"
);
}
);
visible = 1;
width = 732;
},
{
layerId = "B4B9BE83-58FC-4244-9D0D-7F6B370E71EE";
paths = (
{
closed = 1;
nodes = (
"370 0 LINE SMOOTH",
"530 0 OFFCURVE",
"715 174 OFFCURVE",
"720 350 QCURVE SMOOTH",
"725 518 OFFCURVE",
"578 700 OFFCURVE",
"380 700 QCURVE SMOOTH",
"70 700 LINE",
"70 0 LINE"
);
},
{
closed = 1;
nodes = (
"280 560 LINE",
"300 560 LINE SMOOTH",
"365 560 OFFCURVE",
"410 489 OFFCURVE",
"410 350 QCURVE SMOOTH",
"410 226 OFFCURVE",
"372 140 OFFCURVE",
"300 140 QCURVE SMOOTH",
"280 140 LINE"
);
}
);
width = 748;
}
);
note = uni0044;
unicode = 0044;
},
{
color = 10;
glyphname = E;
lastChange = "2018-10-26 16:56:52 +0000";
layers = (
{
layerId = "F6752803-E9E3-41A6-B92A-1FAB6ACE0E29";
paths = (
{
closed = 1;
nodes = (
"580 0 LINE",
"580 90 LINE",
"180 90 LINE",
"180 320 LINE",
"520 320 LINE",
"520 410 LINE",
"180 410 LINE",
"180 610 LINE",
"570 610 LINE",
"570 700 LINE",
"80 700 LINE",
"80 0 LINE"
);
}
);
width = 666;
},
{
layerId = "B4B9BE83-58FC-4244-9D0D-7F6B370E71EE";
paths = (
{
closed = 1;
nodes = (
"580 0 LINE",
"580 140 LINE",
"240 140 LINE",
"240 300 LINE",
"520 300 LINE",
"520 430 LINE",
"240 430 LINE",
"240 560 LINE",
"570 560 LINE",
"570 700 LINE",
"70 700 LINE",
"70 0 LINE"
);
}
);
width = 670;
}
);
note = uni0045;
unicode = 0045;
},
{
color = 10;
glyphname = F;
lastChange = "2018-10-27 17:51:50 +0000";
layers = (
{
layerId = "F6752803-E9E3-41A6-B92A-1FAB6ACE0E29";
paths = (
{
closed = 1;
nodes = (
"480 690 LINE",
"470 700 LINE",
"60 700 LINE",
"50 690 LINE",
"50 10 LINE",
"60 0 LINE",
"140 0 LINE",
"150 10 LINE",
"150 290 LINE",
"160 300 LINE",
"450 300 LINE",
"460 310 LINE",
"460 380 LINE",
"450 390 LINE",
"160 390 LINE",
"150 400 LINE",
"150 600 LINE",
"160 610 LINE",
"470 610 LINE",
"480 620 LINE"
);
}
);
width = 510;
},
{
layerId = "B4B9BE83-58FC-4244-9D0D-7F6B370E71EE";
paths = (
{
closed = 1;
nodes = (
"480 690 LINE",
"470 700 LINE",
"60 700 LINE",
"50 690 LINE",
"50 10 LINE",
"60 0 LINE",
"220 0 LINE",
"230 10 LINE",
"230 260 LINE",
"240 270 LINE",
"450 270 LINE",
"460 280 LINE",
"460 410 LINE",
"450 420 LINE",
"240 420 LINE",
"230 430 LINE",
"230 530 LINE",
"240 540 LINE",
"470 540 LINE",
"480 550 LINE"
);
}
);
width = 510;
}
);
note = uni0046;
unicode = 0046;
},
{
color = 10;
glyphname = G;
lastChange = "2018-10-26 16:56:52 +0000";
layers = (
{
layerId = "F6752803-E9E3-41A6-B92A-1FAB6ACE0E29";
paths = (
{
closed = 1;
nodes = (
"471 -22 OFFCURVE",
"588 44 OFFCURVE",
"630 110 QCURVE",
"630 110 LINE",
"660 0 LINE",
"720 0 LINE",
"720 370 LINE",
"410 370 LINE",
"410 290 LINE",
"620 290 LINE",
"620 270 LINE SMOOTH",
"620 177 OFFCURVE",
"508 73 OFFCURVE",
"400 70 QCURVE SMOOTH",
"288 67 OFFCURVE",
"153 223 OFFCURVE",
"150 350 QCURVE SMOOTH",
"147 473 OFFCURVE",
"301 621 OFFCURVE",
"410 620 QCURVE SMOOTH",
"492 619 OFFCURVE",
"588 541 OFFCURVE",
"610 480 QCURVE",
"710 480 LINE",
"700 579 OFFCURVE",
"553 709 OFFCURVE",
"410 710 QCURVE SMOOTH",
"250 711 OFFCURVE",
"49 494 OFFCURVE",
"50 350 QCURVE SMOOTH",
"51 214 OFFCURVE",
"220 -15 OFFCURVE",
"400 -20 QCURVE SMOOTH"
);
}
);
width = 781;
},
{
associatedMasterId = "F6752803-E9E3-41A6-B92A-1FAB6ACE0E29";
layerId = "91DFF842-48D4-4832-AB06-8859CA3A8081";
name = "Aug 4 18, 23:44";
paths = (
{
closed = 1;
nodes = (
"658 0 LINE",
"723 0 LINE",
"723 394 LINE",
"406 394 LINE",
"406 307 LINE",
"622 307 LINE",
"622 291 LINE SMOOTH",
"622 247 OFFCURVE",
"595 168 OFFCURVE",
"541 108 OFFCURVE",
"458 73 OFFCURVE",
"403 73 QCURVE SMOOTH",
"348 73 OFFCURVE",
"256 116 OFFCURVE",
"190 194 OFFCURVE",
"153 303 OFFCURVE",
"153 369 QCURVE SMOOTH",
"153 433 OFFCURVE",
"183 544 OFFCURVE",
"245 625 OFFCURVE",
"341 671 OFFCURVE",
"406 671 QCURVE SMOOTH",
"492 671 OFFCURVE",
"588 591 OFFCURVE",
"605 528 QCURVE",
"711 528 LINE",
"700 579 OFFCURVE",
"652 664 OFFCURVE",
"576 725 OFFCURVE",
"473 759 OFFCURVE",
"407 759 QCURVE SMOOTH",
"320 759 OFFCURVE",
"189 701 OFFCURVE",
"144 650 QCURVE SMOOTH",
"97 597 OFFCURVE",
"49 454 OFFCURVE",
"49 369 QCURVE SMOOTH",
"49 284 OFFCURVE",
"99 143 OFFCURVE",
"146 92 QCURVE SMOOTH",
"192 41 OFFCURVE",
"320 -16 OFFCURVE",
"398 -16 QCURVE SMOOTH",
"471 -16 OFFCURVE",
"588 44 OFFCURVE",
"628 105 QCURVE",
"631 105 LINE"
);
}
);
visible = 1;
width = 781;
},
{
layerId = "B4B9BE83-58FC-4244-9D0D-7F6B370E71EE";
paths = (
{
closed = 1;
nodes = (
"465 -22 OFFCURVE",
"567 38 OFFCURVE",
"600 100 QCURVE",
"600 100 LINE",
"620 0 LINE",
"740 0 LINE",
"740 390 LINE",
"420 390 LINE",
"420 260 LINE",
"570 260 LINE",
"570 260 LINE SMOOTH",
"574 180 OFFCURVE",
"474 122 OFFCURVE",
"410 120 QCURVE SMOOTH",
"299 117 OFFCURVE",
"207 255 OFFCURVE",
"210 360 QCURVE SMOOTH",
"212 441 OFFCURVE",
"303 576 OFFCURVE",
"400 580 QCURVE SMOOTH",
"467 583 OFFCURVE",
"539 517 OFFCURVE",
"550 480 QCURVE",
"720 480 LINE",
"713 578 OFFCURVE",
"538 717 OFFCURVE",
"400 720 QCURVE SMOOTH",
"234 724 OFFCURVE",
"34 505 OFFCURVE",
"30 360 QCURVE SMOOTH",
"25 163 OFFCURVE",
"256 -16 OFFCURVE",
"390 -20 QCURVE SMOOTH"
);
}
);
width = 784;
}
);
note = uni0047;
unicode = 0047;
},
{
color = 10;
glyphname = H;
lastChange = "2018-10-26 16:56:52 +0000";
layers = (
{
layerId = "F6752803-E9E3-41A6-B92A-1FAB6ACE0E29";
paths = (
{
closed = 1;
nodes = (
"30 0 LINE",
"130 0 LINE",
"130 330 LINE",
"510 330 LINE",
"510 0 LINE",
"610 0 LINE",
"610 700 LINE",
"510 700 LINE",
"510 410 LINE",
"130 410 LINE",
"130 700 LINE",
"30 700 LINE"
);
}
);
width = 640;
},
{
layerId = "B4B9BE83-58FC-4244-9D0D-7F6B370E71EE";
paths = (
{
closed = 1;
nodes = (
"30 0 LINE",
"280 0 LINE",
"280 270 LINE",
"360 270 LINE",
"360 0 LINE",
"610 0 LINE",
"610 700 LINE",
"360 700 LINE",
"360 470 LINE",
"280 470 LINE",
"280 700 LINE",
"30 700 LINE"
);
}
);
width = 640;
}
);
note = uni0048;
unicode = 0048;
},
{
color = 10;
glyphname = I;
lastChange = "2018-10-26 16:56:52 +0000";
layers = (
{
layerId = "F6752803-E9E3-41A6-B92A-1FAB6ACE0E29";
paths = (
{
closed = 1;
nodes = (
"180 0 LINE",
"180 700 LINE",
"80 700 LINE",
"80 0 LINE"
);
}
);
width = 256;
},
{
layerId = "B4B9BE83-58FC-4244-9D0D-7F6B370E71EE";
paths = (
{
closed = 1;
nodes = (
"180 0 LINE",
"180 700 LINE",
"10 700 LINE",
"10 0 LINE"
);
}
);
width = 184;
}
);
leftMetricsKey = "=H";
note = uni0049;
rightMetricsKey = "=H";
unicode = 0049;
},
{
color = 10;
glyphname = J;
lastChange = "2018-10-26 16:56:52 +0000";
layers = (
{
layerId = "F6752803-E9E3-41A6-B92A-1FAB6ACE0E29";
paths = (
{
closed = 1;
nodes = (
"360 -25 OFFCURVE",
"470 99 OFFCURVE",
"470 190 QCURVE SMOOTH",
"470 700 LINE",
"370 700 LINE",
"370 200 LINE SMOOTH",
"370 130 OFFCURVE",
"302 70 OFFCURVE",
"260 70 QCURVE SMOOTH",
"194 70 OFFCURVE",
"130 166 OFFCURVE",
"130 230 QCURVE SMOOTH",
"130 250 LINE",
"30 250 LINE",
"30 230 LINE SMOOTH",
"30 112 OFFCURVE",
"150 -15 OFFCURVE",
"250 -20 QCURVE SMOOTH"
);
}
);
width = 539;
},
{
layerId = "B4B9BE83-58FC-4244-9D0D-7F6B370E71EE";
paths = (
{
closed = 1;
nodes = (
"388 -7 OFFCURVE",
"520 103 OFFCURVE",
"520 220 QCURVE SMOOTH",
"520 700 LINE",
"350 700 LINE",
"350 220 LINE SMOOTH",
"350 176 OFFCURVE",
"313 127 OFFCURVE",
"270 130 QCURVE SMOOTH",
"228 133 OFFCURVE",
"180 173 OFFCURVE",
"180 230 QCURVE SMOOTH",
"180 280 LINE",
"30 280 LINE",
"30 230 LINE SMOOTH",
"30 114 OFFCURVE",
"152 -14 OFFCURVE",
"280 -10 QCURVE SMOOTH"
);
}
);
width = 579;
}
);
note = uni004A;
unicode = 004A;
},
{
color = 10;
glyphname = K;
lastChange = "2018-10-26 16:56:52 +0000";
layers = (
{
layerId = "F6752803-E9E3-41A6-B92A-1FAB6ACE0E29";
paths = (
{
closed = 1;
nodes = (
"180 0 LINE",
"180 220 LINE",
"290 330 LINE",
"570 0 LINE",
"690 0 LINE",
"360 400 LINE",
"660 700 LINE",
"530 700 LINE",
"180 330 LINE",
"180 700 LINE",
"80 700 LINE",
"80 0 LINE"
);
}
);
width = 686;
},
{
layerId = "B4B9BE83-58FC-4244-9D0D-7F6B370E71EE";
paths = (
{
closed = 1;
nodes = (
"230 0 LINE",
"230 220 LINE",
"300 290 LINE",
"530 0 LINE",
"730 0 LINE",
"420 400 LINE",
"710 700 LINE",
"510 700 LINE",
"230 400 LINE",
"230 700 LINE",
"60 700 LINE",
"60 0 LINE"
);
}
);
width = 736;
}
);
note = uni004B;
unicode = 004B;
},
{
color = 10;
glyphname = L;
lastChange = "2018-10-26 16:56:52 +0000";
layers = (
{
layerId = "F6752803-E9E3-41A6-B92A-1FAB6ACE0E29";
paths = (
{
closed = 1;
nodes = (
"560 0 LINE",
"560 90 LINE",
"180 90 LINE",
"180 700 LINE",
"80 700 LINE",
"80 0 LINE"
);
}
);
width = 595;
},
{
layerId = "B4B9BE83-58FC-4244-9D0D-7F6B370E71EE";
paths = (
{
closed = 1;
nodes = (
"580 0 LINE",
"580 150 LINE",
"230 150 LINE",
"230 700 LINE",
"60 700 LINE",
"60 0 LINE"
);
}
);
width = 604;
}
);
note = uni004C;
unicode = 004C;
},
{
color = 10;
glyphname = M;
lastChange = "2018-10-26 16:56:52 +0000";
layers = (
{
layerId = "F6752803-E9E3-41A6-B92A-1FAB6ACE0E29";
paths = (
{
closed = 1;
nodes = (
"170 0 LINE",
"160 590 LINE",
"170 590 LINE",
"198 472 OFFCURVE",
"220 420 QCURVE SMOOTH",
"400 0 LINE",
"480 0 LINE",
"660 420 LINE SMOOTH",
"687 484 OFFCURVE",
"710 590 QCURVE",
"710 590 LINE",
"710 0 LINE",
"810 0 LINE",
"810 700 LINE",
"670 700 LINE",
"520 300 LINE SMOOTH",
"459 137 OFFCURVE",
"440 110 QCURVE",
"421 137 OFFCURVE",
"360 300 QCURVE SMOOTH",
"210 700 LINE",
"80 700 LINE",
"80 0 LINE"
);
}
);
width = 881;
},
{
layerId = "B4B9BE83-58FC-4244-9D0D-7F6B370E71EE";
paths = (
{
closed = 1;
nodes = (
"220 0 LINE",
"200 550 LINE",
"210 550 LINE",
"244 355 OFFCURVE",
"260 310 QCURVE SMOOTH",
"370 0 LINE",
"510 0 LINE",
"620 310 LINE SMOOTH",
"630 338 OFFCURVE",
"680 550 QCURVE",
"680 550 LINE",
"670 0 LINE",
"820 0 LINE",
"820 700 LINE",
"590 700 LINE",
"500 390 LINE SMOOTH",
"469 284 OFFCURVE",
"440 170 QCURVE",
"400 360 OFFCURVE",
"390 390 QCURVE SMOOTH",
"290 700 LINE",
"60 700 LINE",
"60 0 LINE"
);
}
);
width = 884;
}
);
note = uni004D;
unicode = 004D;
},
{
color = 10;
glyphname = N;
lastChange = "2018-10-26 16:56:52 +0000";
layers = (
{
layerId = "F6752803-E9E3-41A6-B92A-1FAB6ACE0E29";
paths = (
{
closed = 1;
nodes = (
"170 0 LINE",
"170 410 LINE SMOOTH",
"170 471 OFFCURVE",
"170 570 QCURVE",
"205 481 OFFCURVE",
"250 420 QCURVE SMOOTH",
"560 0 LINE",
"660 0 LINE",
"660 700 LINE",
"570 700 LINE",
"570 290 LINE SMOOTH",
"570 213 OFFCURVE",
"570 130 QCURVE",
"540 213 OFFCURVE",
"490 280 QCURVE SMOOTH",
"180 700 LINE",
"80 700 LINE",
"80 0 LINE"
);
}
);
width = 741;
},
{
layerId = "B4B9BE83-58FC-4244-9D0D-7F6B370E71EE";
paths = (
{
closed = 1;
nodes = (
"230 0 LINE",
"230 350 LINE SMOOTH",
"230 353 OFFCURVE",
"220 470 QCURVE",
"282 362 OFFCURVE",
"290 350 QCURVE SMOOTH",
"520 0 LINE",
"690 0 LINE",
"690 700 LINE",
"530 700 LINE",
"530 340 LINE SMOOTH",
"530 311 OFFCURVE",
"540 230 QCURVE",
"490 306 OFFCURVE",
"430 400 QCURVE SMOOTH",
"240 700 LINE",
"60 700 LINE",
"60 0 LINE"
);
}
);
width = 753;
}
);
note = uni004E;
unicode = 004E;
},
{
color = 10;
glyphname = O;
lastChange = "2018-10-26 16:56:52 +0000";
layers = (
{
layerId = "F6752803-E9E3-41A6-B92A-1FAB6ACE0E29";
paths = (
{
closed = 1;
nodes = (
"587 -24 OFFCURVE",
"778 179 OFFCURVE",
"780 340 QCURVE SMOOTH",
"782 496 OFFCURVE",
"587 720 OFFCURVE",
"410 720 QCURVE SMOOTH",
"249 720 OFFCURVE",
"49 496 OFFCURVE",
"50 340 QCURVE SMOOTH",
"51 179 OFFCURVE",
"249 -16 OFFCURVE",
"410 -20 QCURVE SMOOTH"
);
},
{
closed = 1;
nodes = (
"310 67 OFFCURVE",
"153 198 OFFCURVE",
"150 340 QCURVE SMOOTH",
"147 476 OFFCURVE",
"310 632 OFFCURVE",
"410 630 QCURVE SMOOTH",
"526 628 OFFCURVE",
"672 476 OFFCURVE",
"670 340 QCURVE SMOOTH",
"668 198 OFFCURVE",
"526 73 OFFCURVE",
"410 70 QCURVE SMOOTH"
);
}
);
width = 826;
},
{
associatedMasterId = "F6752803-E9E3-41A6-B92A-1FAB6ACE0E29";
layerId = "9B85175D-3939-4768-9450-4FC5DAEFA74F";
name = "Aug 5 18, 11:15";
paths = (
{
closed = 1;
nodes = (
"497 -16 OFFCURVE",
"632 43 OFFCURVE",
"727 147 OFFCURVE",
"778 289 OFFCURVE",
"778 372 QCURVE SMOOTH",
"778 456 OFFCURVE",
"727 598 OFFCURVE",
"632 701 OFFCURVE",
"497 760 OFFCURVE",
"413 760 QCURVE SMOOTH",
"329 760 OFFCURVE",
"194 701 OFFCURVE",
"99 598 OFFCURVE",
"49 456 OFFCURVE",
"49 372 QCURVE SMOOTH",
"49 289 OFFCURVE",
"99 147 OFFCURVE",
"194 43 OFFCURVE",
"329 -16 OFFCURVE",
"413 -16 QCURVE SMOOTH"
);
},
{
closed = 1;
nodes = (
"350 74 OFFCURVE",
"253 119 OFFCURVE",
"187 199 OFFCURVE",
"153 308 OFFCURVE",
"153 372 QCURVE SMOOTH",
"153 436 OFFCURVE",
"187 546 OFFCURVE",
"253 626 OFFCURVE",
"350 672 OFFCURVE",
"413 672 QCURVE SMOOTH",
"476 672 OFFCURVE",
"573 626 OFFCURVE",
"639 546 OFFCURVE",
"672 436 OFFCURVE",
"672 372 QCURVE SMOOTH",
"672 308 OFFCURVE",
"639 199 OFFCURVE",
"573 119 OFFCURVE",
"476 74 OFFCURVE",
"413 74 QCURVE SMOOTH"
);
}
);
visible = 1;
width = 826;
},
{
layerId = "B4B9BE83-58FC-4244-9D0D-7F6B370E71EE";
paths = (
{
closed = 1;
nodes = (
"554 -22 OFFCURVE",
"766 166 OFFCURVE",
"770 350 QCURVE SMOOTH",
"773 503 OFFCURVE",
"564 717 OFFCURVE",
"400 720 QCURVE SMOOTH",
"245 723 OFFCURVE",
"32 503 OFFCURVE",
"30 350 QCURVE SMOOTH",
"28 166 OFFCURVE",
"245 -18 OFFCURVE",
"400 -20 QCURVE SMOOTH"
);
},
{
closed = 1;
nodes = (
"303 118 OFFCURVE",
"205 246 OFFCURVE",
"210 350 QCURVE SMOOTH",
"214 432 OFFCURVE",
"303 579 OFFCURVE",
"400 580 QCURVE SMOOTH",
"499 581 OFFCURVE",
"593 432 OFFCURVE",
"590 350 QCURVE SMOOTH",
"586 246 OFFCURVE",
"499 122 OFFCURVE",
"400 120 QCURVE SMOOTH"
);
}
);
width = 799;
}
);
note = uni004F;
unicode = 004F;
},
{
color = 10;
glyphname = P;
lastChange = "2018-10-26 16:56:52 +0000";
layers = (
{
layerId = "F6752803-E9E3-41A6-B92A-1FAB6ACE0E29";
paths = (
{
closed = 1;
nodes = (
"180 0 LINE",
"180 270 LINE",
"380 270 LINE SMOOTH",
"501 270 OFFCURVE",
"622 383 OFFCURVE",
"620 490 QCURVE SMOOTH",
"619 561 OFFCURVE",
"520 700 OFFCURVE",
"390 700 QCURVE SMOOTH",
"80 700 LINE",
"80 0 LINE"
);
},
{
closed = 1;
nodes = (
"180 620 LINE",
"370 620 LINE SMOOTH",
"443 620 OFFCURVE",
"519 549 OFFCURVE",
"520 480 QCURVE SMOOTH",
"521 420 OFFCURVE",
"446 350 OFFCURVE",
"370 350 QCURVE SMOOTH",
"180 350 LINE"
);
}
);
width = 647;
},
{
layerId = "B4B9BE83-58FC-4244-9D0D-7F6B370E71EE";
paths = (
{
closed = 1;
nodes = (
"240 0 LINE",
"240 210 LINE",
"410 210 LINE SMOOTH",
"542 210 OFFCURVE",
"664 326 OFFCURVE",
"660 450 QCURVE SMOOTH",
"657 544 OFFCURVE",
"564 700 OFFCURVE",
"390 700 QCURVE SMOOTH",
"60 700 LINE",
"60 0 LINE"
);
},
{
closed = 1;
nodes = (
"240 550 LINE",
"380 550 LINE SMOOTH",
"435 550 OFFCURVE",
"492 508 OFFCURVE",
"490 450 QCURVE SMOOTH",
"488 391 OFFCURVE",
"435 350 OFFCURVE",
"380 350 QCURVE SMOOTH",
"240 350 LINE"
);
}
);
width = 686;
}
);
note = uni0050;
unicode = 0050;
},
{
color = 10;
glyphname = Q;
lastChange = "2018-10-27 16:26:09 +0000";
layers = (
{
layerId = "F6752803-E9E3-41A6-B92A-1FAB6ACE0E29";
paths = (
{
closed = 1;
nodes = (
"770 0 LINE",
"670 80 LINE",
"777 193 OFFCURVE",
"780 350 QCURVE SMOOTH",
"783 506 OFFCURVE",
"577 720 OFFCURVE",
"410 720 QCURVE SMOOTH",
"249 720 OFFCURVE",
"49 506 OFFCURVE",
"50 350 QCURVE SMOOTH",
"51 169 OFFCURVE",
"259 -15 OFFCURVE",
"410 -20 QCURVE SMOOTH",
"507 -23 OFFCURVE",
"600 30 QCURVE",
"720 -70 LINE"
);
},
{
closed = 1;
nodes = (
"300 67 OFFCURVE",
"153 218 OFFCURVE",
"150 350 QCURVE SMOOTH",
"147 466 OFFCURVE",
"300 632 OFFCURVE",
"410 630 QCURVE SMOOTH",
"536 628 OFFCURVE",
"672 466 OFFCURVE",
"670 350 QCURVE SMOOTH",
"668 211 OFFCURVE",
"590 140 QCURVE",
"480 240 LINE",
"430 170 LINE",
"520 100 LINE",
"475 72 OFFCURVE",
"410 70 QCURVE SMOOTH"
);
}
);
width = 825;
},
{
layerId = "B4B9BE83-58FC-4244-9D0D-7F6B370E71EE";
paths = (
{
closed = 1;
nodes = (
"770 10 LINE",
"670 90 LINE",
"765 198 OFFCURVE",
"770 350 QCURVE SMOOTH",
"775 506 OFFCURVE",
"564 720 OFFCURVE",
"400 720 QCURVE SMOOTH",
"224 720 OFFCURVE",
"32 486 OFFCURVE",
"30 350 QCURVE SMOOTH",
"27 166 OFFCURVE",
"254 -28 OFFCURVE",
"400 -30 QCURVE SMOOTH",
"484 -31 OFFCURVE",
"590 20 QCURVE",
"690 -70 LINE"
);
},
{
closed = 1;
nodes = (
"292 112 OFFCURVE",
"206 256 OFFCURVE",
"210 350 QCURVE SMOOTH",
"214 442 OFFCURVE",
"292 582 OFFCURVE",
"400 580 QCURVE SMOOTH",
"508 578 OFFCURVE",
"592 442 OFFCURVE",
"590 350 QCURVE SMOOTH",
"588 241 OFFCURVE",
"560 200 QCURVE",
"460 290 LINE",
"390 210 LINE",
"480 120 LINE",
"444 109 OFFCURVE",
"400 110 QCURVE SMOOTH"
);
}
);
width = 798;
}
);
note = uni0051;
unicode = 0051;
},
{
color = 10;
glyphname = R;
lastChange = "2018-10-27 17:47:31 +0000";
layers = (
{
layerId = "F6752803-E9E3-41A6-B92A-1FAB6ACE0E29";
paths = (
{
closed = 1;
nodes = (
"150 0 LINE",
"160 10 LINE",
"160 290 LINE",
"170 300 LINE",
"340 300 LINE",
"520 0 LINE",
"570 0 LINE",
"580 10 LINE",
"580 90 LINE",
"450 300 LINE",
"450 310 LINE",
"520 330 OFFCURVE",
"590 422 OFFCURVE",
"590 500 QCURVE SMOOTH",
"590 600 OFFCURVE",
"471 700 OFFCURVE",
"360 700 QCURVE SMOOTH",
"70 700 LINE",
"60 690 LINE",
"60 10 LINE",
"70 0 LINE"
);
},
{
closed = 1;
nodes = (
"160 400 LINE",
"160 600 LINE",
"170 610 LINE",
"360 610 LINE SMOOTH",
"428 610 OFFCURVE",
"490 559 OFFCURVE",
"490 500 QCURVE SMOOTH",
"490 441 OFFCURVE",
"428 390 OFFCURVE",
"360 390 QCURVE SMOOTH",
"170 390 LINE"
);
}
);
width = 620;
},
{
layerId = "B4B9BE83-58FC-4244-9D0D-7F6B370E71EE";
paths = (
{
closed = 1;
nodes = (
"230 0 LINE",
"240 10 LINE",
"240 250 LINE",
"250 260 LINE",
"290 260 LINE",
"460 0 LINE",
"570 0 LINE",
"580 10 LINE",
"580 110 LINE",
"470 280 LINE",
"470 290 LINE",
"530 310 OFFCURVE",
"590 390 OFFCURVE",
"590 480 QCURVE SMOOTH",
"590 580 OFFCURVE",
"470 700 OFFCURVE",
"350 700 QCURVE SMOOTH",
"70 700 LINE",
"60 690 LINE",
"60 10 LINE",
"70 0 LINE"
);
},
{
closed = 1;
nodes = (
"240 420 LINE",
"240 540 LINE",
"250 550 LINE",
"340 550 LINE SMOOTH",
"380 550 OFFCURVE",
"410 520 OFFCURVE",
"410 480 QCURVE SMOOTH",
"410 440 OFFCURVE",
"380 410 OFFCURVE",
"340 410 QCURVE SMOOTH",
"250 410 LINE"
);
}
);
width = 620;
}
);
note = uni0052;
unicode = 0052;
},
{
color = 10;
glyphname = S;
lastChange = "2018-10-26 16:56:52 +0000";
layers = (
{
layerId = "F6752803-E9E3-41A6-B92A-1FAB6ACE0E29";
paths = (
{
closed = 1;
nodes = (
"470 -24 OFFCURVE",
"627 92 OFFCURVE",
"630 210 QCURVE SMOOTH",
"632 302 OFFCURVE",
"497 376 OFFCURVE",
"350 420 QCURVE SMOOTH",
"274 443 OFFCURVE",
"159 474 OFFCURVE",
"160 520 QCURVE SMOOTH",
"161 580 OFFCURVE",
"247 638 OFFCURVE",
"320 640 QCURVE SMOOTH",
"400 642 OFFCURVE",
"494 567 OFFCURVE",
"500 500 QCURVE",
"600 500 LINE",
"596 597 OFFCURVE",
"449 718 OFFCURVE",
"320 720 QCURVE SMOOTH",
"203 722 OFFCURVE",
"62 606 OFFCURVE",
"60 520 QCURVE SMOOTH",
"58 415 OFFCURVE",
"210 356 OFFCURVE",
"310 330 QCURVE SMOOTH",
"457 292 OFFCURVE",
"524 257 OFFCURVE",
"520 200 QCURVE SMOOTH",
"515 127 OFFCURVE",
"428 66 OFFCURVE",
"350 70 QCURVE SMOOTH",
"251 75 OFFCURVE",
"141 156 OFFCURVE",
"130 240 QCURVE",
"30 240 LINE",
"34 138 OFFCURVE",
"182 -14 OFFCURVE",
"350 -20 QCURVE SMOOTH"
);
}
);
width = 672;
},
{
layerId = "B4B9BE83-58FC-4244-9D0D-7F6B370E71EE";
paths = (
{
closed = 1;
nodes = (
"469 -23 OFFCURVE",
"654 94 OFFCURVE",
"660 220 QCURVE SMOOTH",
"664 311 OFFCURVE",
"503 411 OFFCURVE",
"400 430 QCURVE SMOOTH",
"324 444 OFFCURVE",
"216 468 OFFCURVE",
"220 510 QCURVE SMOOTH",
"223 545 OFFCURVE",
"281 587 OFFCURVE",
"330 590 QCURVE SMOOTH",
"390 594 OFFCURVE",
"456 539 OFFCURVE",
"460 500 QCURVE",
"630 500 LINE",
"626 600 OFFCURVE",
"470 716 OFFCURVE",
"340 720 QCURVE SMOOTH",
"187 725 OFFCURVE",
"49 591 OFFCURVE",
"50 490 QCURVE SMOOTH",
"51 405 OFFCURVE",
"159 321 OFFCURVE",
"310 290 QCURVE SMOOTH",
"437 264 OFFCURVE",
"483 238 OFFCURVE",
"480 210 QCURVE SMOOTH",
"475 162 OFFCURVE",
"414 118 OFFCURVE",
"360 120 QCURVE SMOOTH",
"283 123 OFFCURVE",
"204 174 OFFCURVE",
"200 240 QCURVE",
"30 240 LINE",
"27 115 OFFCURVE",
"200 -16 OFFCURVE",
"360 -20 QCURVE SMOOTH"
);
}
);
width = 690;
},
{
associatedMasterId = "B4B9BE83-58FC-4244-9D0D-7F6B370E71EE";
layerId = "B7CA4E92-1836-41A7-A852-11125A0BF331";
name = "Aug 5 18, 12:11";
paths = (
{
closed = 1;
nodes = (
"419 -18 OFFCURVE",
"528 14 OFFCURVE",
"609 75 OFFCURVE",
"655 164 OFFCURVE",
"655 222 QCURVE SMOOTH",
"655 281 OFFCURVE",
"612 359 OFFCURVE",
"541 411 OFFCURVE",
"448 442 OFFCURVE",
"398 453 QCURVE SMOOTH",
"354 463 OFFCURVE",
"287 479 OFFCURVE",
"241 500 OFFCURVE",
"217 528 OFFCURVE",
"217 550 QCURVE SMOOTH",
"217 585 OFFCURVE",
"281 627 OFFCURVE",
"334 627 QCURVE SMOOTH",
"390 627 OFFCURVE",
"456 579 OFFCURVE",
"463 535 QCURVE",
"630 535 LINE",
"626 590 OFFCURVE",
"580 673 OFFCURVE",
"504 729 OFFCURVE",
"400 757 OFFCURVE",
"339 757 QCURVE SMOOTH",
"277 757 OFFCURVE",
"171 730 OFFCURVE",
"93 675 OFFCURVE",
"49 591 OFFCURVE",
"49 533 QCURVE SMOOTH",
"49 475 OFFCURVE",
"90 400 OFFCURVE",
"162 351 OFFCURVE",
"258 321 OFFCURVE",
"312 309 QCURVE SMOOTH",
"352 300 OFFCURVE",
"416 283 OFFCURVE",
"460 261 OFFCURVE",
"483 229 OFFCURVE",
"483 205 QCURVE SMOOTH",
"483 182 OFFCURVE",
"462 149 OFFCURVE",
"426 128 OFFCURVE",
"380 118 OFFCURVE",
"355 118 QCURVE SMOOTH",
"283 118 OFFCURVE",
"204 174 OFFCURVE",
"197 235 QCURVE",
"25 235 LINE",
"27 175 OFFCURVE",
"74 80 OFFCURVE",
"160 16 OFFCURVE",
"280 -18 OFFCURVE",
"355 -18 QCURVE SMOOTH"
);
}
);
width = 690;
}
);
note = uni0053;
unicode = 0053;
},
{
color = 10;
glyphname = T;
lastChange = "2018-10-26 16:56:52 +0000";
layers = (
{
layerId = "F6752803-E9E3-41A6-B92A-1FAB6ACE0E29";
paths = (
{
closed = 1;
nodes = (
"30 610 LINE",
"280 610 LINE",
"280 0 LINE",
"380 0 LINE",
"380 610 LINE",
"620 610 LINE",
"620 700 LINE",
"30 700 LINE"
);
}
);
width = 654;
},
{
layerId = "B4B9BE83-58FC-4244-9D0D-7F6B370E71EE";
paths = (
{
closed = 1;
nodes = (
"30 560 LINE",
"250 560 LINE",
"250 0 LINE",
"420 0 LINE",
"420 560 LINE",
"640 560 LINE",
"640 700 LINE",
"30 700 LINE"
);
}
);
width = 668;
}
);
note = uni0054;
unicode = 0054;
},
{
color = 10;
glyphname = U;
lastChange = "2018-10-26 16:56:52 +0000";
layers = (
{
layerId = "F6752803-E9E3-41A6-B92A-1FAB6ACE0E29";
paths = (
{
closed = 1;
nodes = (
"493 -9 OFFCURVE",
"650 125 OFFCURVE",
"650 240 QCURVE SMOOTH",
"650 700 LINE",
"550 700 LINE",
"550 250 LINE SMOOTH",
"550 159 OFFCURVE",
"451 76 OFFCURVE",
"360 80 QCURVE SMOOTH",
"274 84 OFFCURVE",
"180 159 OFFCURVE",
"180 250 QCURVE SMOOTH",
"180 700 LINE",
"80 700 LINE",
"80 240 LINE SMOOTH",
"80 125 OFFCURVE",
"229 -11 OFFCURVE",
"360 -10 QCURVE SMOOTH"
);
}
);
width = 704;
},
{
layerId = "B4B9BE83-58FC-4244-9D0D-7F6B370E71EE";
paths = (
{
closed = 1;
nodes = (
"514 -14 OFFCURVE",
"670 128 OFFCURVE",
"670 259 QCURVE SMOOTH",
"670 736 LINE",
"499 736 LINE",
"499 258 LINE SMOOTH",
"499 197 OFFCURVE",
"431 124 OFFCURVE",
"364 124 QCURVE SMOOTH",
"292 124 OFFCURVE",
"225 194 OFFCURVE",
"225 255 QCURVE SMOOTH",
"225 736 LINE",
"55 736 LINE",
"55 259 LINE SMOOTH",
"55 127 OFFCURVE",
"212 -14 OFFCURVE",
"364 -14 QCURVE SMOOTH"
);
}
);
width = 724;
}
);
note = uni0055;
unicode = 0055;
},
{
color = 10;
glyphname = V;
lastChange = "2018-10-27 17:51:08 +0000";
layers = (
{
layerId = "F6752803-E9E3-41A6-B92A-1FAB6ACE0E29";
paths = (
{
closed = 1;
nodes = (
"590 690 LINE",
"580 700 LINE",
"520 700 LINE",
"510 690 LINE",
"310 140 LINE",
"300 140 LINE",
"100 690 LINE",
"90 700 LINE",
"30 700 LINE",
"20 690 LINE",
"20 610 LINE",
"250 10 LINE",
"260 0 LINE",
"350 0 LINE",
"360 10 LINE",
"590 610 LINE"
);
}
);
width = 610;
},
{
layerId = "B4B9BE83-58FC-4244-9D0D-7F6B370E71EE";
paths = (
{
closed = 1;
nodes = (
"590 690 LINE",
"580 700 LINE",
"430 700 LINE",
"420 690 LINE",
"310 220 LINE",
"300 220 LINE",
"190 690 LINE",
"180 700 LINE",
"30 700 LINE",
"20 690 LINE",
"20 600 LINE",
"180 10 LINE",
"190 0 LINE",
"420 0 LINE",
"430 10 LINE",
"590 600 LINE"
);
}
);
width = 610;
}
);
note = uni0056;
unicode = 0056;
},
{
color = 10;
glyphname = W;
lastChange = "2018-10-26 16:56:52 +0000";
layers = (
{
layerId = "F6752803-E9E3-41A6-B92A-1FAB6ACE0E29";
paths = (
{
closed = 1;
nodes = (
"310 0 LINE",
"450 440 LINE",
"451 461 OFFCURVE",
"480 620 QCURVE",
"511 461 OFFCURVE",
"520 440 QCURVE",
"640 0 LINE",
"740 0 LINE",
"950 700 LINE",
"840 700 LINE",
"730 310 LINE",
"723 278 OFFCURVE",
"690 110 QCURVE",
"660 279 OFFCURVE",
"650 310 QCURVE",
"540 700 LINE",
"430 700 LINE",
"310 310 LINE",
"300 279 OFFCURVE",
"270 110 QCURVE",
"239 278 OFFCURVE",
"230 310 QCURVE",
"130 700 LINE",
"20 700 LINE",
"210 0 LINE"
);
}
);
width = 965;
},
{
layerId = "B4B9BE83-58FC-4244-9D0D-7F6B370E71EE";
paths = (
{
closed = 1;
nodes = (
"380 0 LINE",
"450 270 LINE",
"462 333 OFFCURVE",
"490 530 QCURVE",
"524 333 OFFCURVE",
"540 270 QCURVE",
"610 0 LINE",
"780 0 LINE",
"980 700 LINE",
"810 700 LINE",
"740 410 LINE",
"727 374 OFFCURVE",
"690 170 QCURVE",
"649 381 OFFCURVE",
"640 420 QCURVE",
"570 700 LINE",
"410 700 LINE",
"350 420 LINE",
"338 380 OFFCURVE",
"300 170 QCURVE",
"263 372 OFFCURVE",
"250 410 QCURVE",
"180 700 LINE",
"10 700 LINE",
"210 0 LINE"
);
}
);
width = 999;
}
);
note = uni0057;
unicode = 0057;
},
{
color = 10;
glyphname = X;
lastChange = "2018-10-26 16:56:52 +0000";
layers = (
{
layerId = "F6752803-E9E3-41A6-B92A-1FAB6ACE0E29";
paths = (
{
closed = 1;
nodes = (
"20 0 LINE",
"140 0 LINE",
"260 170 LINE SMOOTH",
"306 235 OFFCURVE",
"340 300 QCURVE",
"354 235 OFFCURVE",
"400 170 QCURVE SMOOTH",
"520 0 LINE",
"640 0 LINE",
"390 350 LINE",
"640 700 LINE",
"520 700 LINE",
"410 520 LINE SMOOTH",
"373 459 OFFCURVE",
"340 420 QCURVE",
"309 456 OFFCURVE",
"270 520 QCURVE SMOOTH",
"160 700 LINE",
"40 700 LINE",
"280 350 LINE"
);
}
);
width = 667;
},
{
layerId = "B4B9BE83-58FC-4244-9D0D-7F6B370E71EE";
paths = (
{
closed = 1;
nodes = (
"20 0 LINE",
"210 0 LINE",
"290 110 LINE SMOOTH",
"344 184 OFFCURVE",
"360 260 QCURVE",
"394 183 OFFCURVE",
"440 110 QCURVE SMOOTH",
"510 0 LINE",
"710 0 LINE",
"470 360 LINE",
"690 700 LINE",
"510 700 LINE",
"440 600 LINE SMOOTH",
"386 522 OFFCURVE",
"370 470 QCURVE",
"334 526 OFFCURVE",
"290 600 QCURVE SMOOTH",
"230 700 LINE",
"40 700 LINE",
"270 360 LINE"
);
}
);
width = 730;
}
);
note = uni0058;
unicode = 0058;
},
{
color = 10;
glyphname = Y;
lastChange = "2018-10-26 16:56:52 +0000";
layers = (
{
layerId = "F6752803-E9E3-41A6-B92A-1FAB6ACE0E29";
paths = (
{
closed = 1;
nodes = (
"390 0 LINE",
"390 260 LINE",
"660 700 LINE",
"550 700 LINE",
"420 470 LINE SMOOTH",
"408 448 OFFCURVE",
"340 330 QCURVE",
"294 431 OFFCURVE",
"270 470 QCURVE SMOOTH",
"130 700 LINE",
"20 700 LINE",
"290 260 LINE",
"290 0 LINE"
);
}
);
width = 678;
},
{
layerId = "B4B9BE83-58FC-4244-9D0D-7F6B370E71EE";
paths = (
{
closed = 1;
nodes = (
"436 0 LINE",
"436 272 LINE",
"691 736 LINE",
"511 736 LINE",
"430 580 LINE SMOOTH",
"417 554 OFFCURVE",
"354 403 QCURVE",
"291 554 OFFCURVE",
"278 580 QCURVE SMOOTH",
"198 736 LINE",
"11 736 LINE",
"266 270 LINE",
"266 0 LINE"
);
}
);
width = 702;
}
);
note = uni0059;
unicode = 0059;
},
{
color = 10;
glyphname = Z;
lastChange = "2018-10-26 16:56:52 +0000";
layers = (
{
layerId = "F6752803-E9E3-41A6-B92A-1FAB6ACE0E29";
paths = (
{
closed = 1;
nodes = (
"620 0 LINE",
"620 90 LINE",
"290 90 LINE SMOOTH",
"224 90 OFFCURVE",
"150 90 QCURVE",
"217 181 OFFCURVE",
"270 240 QCURVE SMOOTH",
"610 620 LINE",
"610 700 LINE",
"70 700 LINE",
"70 610 LINE",
"360 610 LINE SMOOTH",
"377 610 OFFCURVE",
"490 610 QCURVE",
"414 525 OFFCURVE",
"400 510 QCURVE SMOOTH",
"40 100 LINE",
"40 0 LINE"
);
}
);
width = 668;
},
{
layerId = "B4B9BE83-58FC-4244-9D0D-7F6B370E71EE";
paths = (
{
closed = 1;
nodes = (
"649 0 LINE",
"649 146 LINE",
"401 146 LINE SMOOTH",
"378 146 OFFCURVE",
"235 143 QCURVE",
"343 254 OFFCURVE",
"370 286 QCURVE SMOOTH",
"635 602 LINE",
"635 736 LINE",
"63 736 LINE",
"63 592 LINE",
"277 592 LINE SMOOTH",
"299 592 OFFCURVE",
"434 597 QCURVE",
"328 484 OFFCURVE",
"311 464 QCURVE SMOOTH",
"36 138 LINE",
"36 0 LINE"
);
}
);
width = 688;
}
);
note = uni005A;
unicode = 005A;
},
{
color = 10;
glyphname = F.alt_001;
lastChange = "2018-10-26 16:56:52 +0000";
layers = (
{
layerId = "F6752803-E9E3-41A6-B92A-1FAB6ACE0E29";
paths = (
{
closed = 1;
nodes = (
"180 0 LINE",
"180 320 LINE",
"520 320 LINE",
"520 410 LINE",
"180 410 LINE",
"180 610 LINE",
"590 610 LINE",
"590 700 LINE",
"80 700 LINE",
"80 0 LINE"
);
}
);
width = 622;
},
{
layerId = "B4B9BE83-58FC-4244-9D0D-7F6B370E71EE";
paths = (
{
closed = 1;
nodes = (
"230 0 LINE",
"230 260 LINE",
"540 260 LINE",
"540 400 LINE",
"230 400 LINE",
"230 550 LINE",
"610 550 LINE",
"610 700 LINE",
"60 700 LINE",
"60 0 LINE"
);
}
);
width = 641;
}
);
note = uni0046;
},
{
color = 10;
glyphname = a;
lastChange = "2018-10-26 23:28:04 +0000";
layers = (
{
layerId = "F6752803-E9E3-41A6-B92A-1FAB6ACE0E29";
paths = (
{
closed = 1;
nodes = (
"260 -10 OFFCURVE",
"340 50 QCURVE",
"350 50 LINE",
"360 10 LINE",
"370 0 LINE",
"440 0 LINE",
"450 10 LINE",
"450 290 LINE",
"450 410 OFFCURVE",
"350 510 OFFCURVE",
"250 510 QCURVE SMOOTH",
"160 510 OFFCURVE",
"50 421 OFFCURVE",
"50 360 QCURVE",
"60 350 LINE",
"140 350 LINE",
"150 360 LINE",
"150 420 OFFCURVE",
"250 420 QCURVE SMOOTH",
"304 420 OFFCURVE",
"350 370 OFFCURVE",
"350 310 QCURVE",
"340 300 LINE",
"260 300 LINE SMOOTH",
"148 300 OFFCURVE",
"30 230 OFFCURVE",
"30 150 QCURVE SMOOTH",
"30 74 OFFCURVE",
"118 -10 OFFCURVE",
"200 -10 QCURVE SMOOTH"
);
},
{
closed = 1;
nodes = (
"130 80 OFFCURVE",
"130 150 QCURVE SMOOTH",
"130 220 OFFCURVE",
"260 220 QCURVE SMOOTH",
"340 220 LINE",
"350 210 LINE",
"350 180 LINE SMOOTH",
"350 135 OFFCURVE",
"280 80 OFFCURVE",
"220 80 QCURVE SMOOTH"
);
}
);
width = 562;
},
{
layerId = "B4B9BE83-58FC-4244-9D0D-7F6B370E71EE";
paths = (
{
closed = 1;
nodes = (
"260 -10 OFFCURVE",
"340 50 QCURVE",
"350 50 LINE",
"360 10 LINE",
"370 0 LINE",
"440 0 LINE",
"450 10 LINE",
"450 290 LINE",
"450 410 OFFCURVE",
"350 510 OFFCURVE",
"250 510 QCURVE SMOOTH",
"160 510 OFFCURVE",
"50 421 OFFCURVE",
"50 360 QCURVE",
"60 350 LINE",
"140 350 LINE",
"150 360 LINE",
"150 420 OFFCURVE",
"250 420 QCURVE SMOOTH",
"304 420 OFFCURVE",
"350 370 OFFCURVE",
"350 310 QCURVE",
"340 300 LINE",
"260 300 LINE SMOOTH",
"148 300 OFFCURVE",
"30 230 OFFCURVE",
"30 150 QCURVE SMOOTH",
"30 74 OFFCURVE",
"118 -10 OFFCURVE",
"200 -10 QCURVE SMOOTH"
);
},
{
closed = 1;
nodes = (
"130 80 OFFCURVE",
"130 150 QCURVE SMOOTH",
"130 220 OFFCURVE",
"260 220 QCURVE SMOOTH",
"340 220 LINE",
"350 210 LINE",
"350 180 LINE SMOOTH",
"350 135 OFFCURVE",
"280 80 OFFCURVE",
"220 80 QCURVE SMOOTH"
);
}
);
width = 580;
}
);
note = uni0061;
unicode = 0061;
},
{
color = 10;
glyphname = b;
lastChange = "2018-10-26 22:54:44 +0000";
layers = (
{
layerId = "F6752803-E9E3-41A6-B92A-1FAB6ACE0E29";
paths = (
{
closed = 1;
nodes = (
"520 377 OFFCURVE",
"412 510 OFFCURVE",
"300 510 QCURVE SMOOTH",
"236 510 OFFCURVE",
"170 450 QCURVE",
"160 450 LINE",
"160 690 LINE",
"150 700 LINE",
"70 700 LINE",
"60 690 LINE",
"60 10 LINE",
"70 0 LINE",
"140 0 LINE",
"150 10 LINE",
"160 50 LINE",
"170 50 LINE",
"237 -10 OFFCURVE",
"300 -10 QCURVE SMOOTH",
"406 -10 OFFCURVE",
"520 147 OFFCURVE",
"520 250 QCURVE SMOOTH"
);
},
{
closed = 1;
nodes = (
"230 80 OFFCURVE",
"160 164 OFFCURVE",
"160 250 QCURVE SMOOTH",
"160 333 OFFCURVE",
"225 420 OFFCURVE",
"290 420 QCURVE SMOOTH",
"357 420 OFFCURVE",
"420 357 OFFCURVE",
"420 260 QCURVE SMOOTH",
"420 175 OFFCURVE",
"367 80 OFFCURVE",
"290 80 QCURVE SMOOTH"
);
}
);
width = 550;
},
{
layerId = "B4B9BE83-58FC-4244-9D0D-7F6B370E71EE";
paths = (
{
closed = 1;
nodes = (
"520 377 OFFCURVE",
"412 510 OFFCURVE",
"300 510 QCURVE SMOOTH",
"266 510 OFFCURVE",
"200 450 QCURVE",
"190 450 LINE",
"190 690 LINE",
"180 700 LINE",
"70 700 LINE",
"60 690 LINE",
"60 10 LINE",
"70 0 LINE",
"170 0 LINE",
"180 10 LINE",
"190 50 LINE",
"200 50 LINE",
"267 -10 OFFCURVE",
"300 -10 QCURVE SMOOTH",
"406 -10 OFFCURVE",
"520 147 OFFCURVE",
"520 250 QCURVE SMOOTH"
);
},
{
closed = 1;
nodes = (
"230 80 OFFCURVE",
"190 164 OFFCURVE",
"190 250 QCURVE SMOOTH",
"190 333 OFFCURVE",
"225 420 OFFCURVE",
"290 420 QCURVE SMOOTH",
"357 420 OFFCURVE",
"390 357 OFFCURVE",
"390 260 QCURVE SMOOTH",
"390 175 OFFCURVE",
"367 80 OFFCURVE",
"290 80 QCURVE SMOOTH"
);
}
);
width = 550;
}
);
note = uni0062;
unicode = 0062;
},
{
color = 10;
glyphname = c;
lastChange = "2018-10-26 23:08:57 +0000";
layers = (
{
layerId = "F6752803-E9E3-41A6-B92A-1FAB6ACE0E29";
paths = (
{
closed = 1;
nodes = (
"370 420 OFFCURVE",
"390 340 QCURVE",
"400 330 LINE",
"480 330 LINE",
"490 340 LINE",
"480 430 OFFCURVE",
"370 510 OFFCURVE",
"270 510 QCURVE SMOOTH",
"150 510 OFFCURVE",
"30 370 OFFCURVE",
"30 250 QCURVE SMOOTH",
"30 130 OFFCURVE",
"158 -10 OFFCURVE",
"270 -10 QCURVE SMOOTH",
"366 -10 OFFCURVE",
"480 80 OFFCURVE",
"490 160 QCURVE",
"480 170 LINE",
"400 170 LINE",
"390 160 LINE",
"370 80 OFFCURVE",
"270 80 QCURVE SMOOTH",
"202 80 OFFCURVE",
"130 168 OFFCURVE",
"130 250 QCURVE SMOOTH",
"130 330 OFFCURVE",
"200 420 OFFCURVE",
"270 420 QCURVE SMOOTH"
);
}
);
width = 520;
},
{
layerId = "B4B9BE83-58FC-4244-9D0D-7F6B370E71EE";
paths = (
{
closed = 1;
nodes = (
"319 390 OFFCURVE",
"330 320 QCURVE",
"340 310 LINE",
"480 310 LINE",
"490 320 LINE",
"481 402 OFFCURVE",
"372 510 OFFCURVE",
"280 510 QCURVE SMOOTH",
"149 510 OFFCURVE",
"30 372 OFFCURVE",
"30 250 QCURVE SMOOTH",
"30 123 OFFCURVE",
"163 -10 OFFCURVE",
"280 -10 QCURVE SMOOTH",
"363 -10 OFFCURVE",
"481 98 OFFCURVE",
"490 180 QCURVE",
"480 190 LINE",
"340 190 LINE",
"330 180 LINE",
"317 110 OFFCURVE",
"280 110 QCURVE SMOOTH",
"237 110 OFFCURVE",
"210 158 OFFCURVE",
"210 250 QCURVE SMOOTH",
"210 345 OFFCURVE",
"235 390 OFFCURVE",
"280 390 QCURVE SMOOTH"
);
}
);
width = 520;
}
);
note = uni0063;
unicode = 0063;
},
{
color = 10;
glyphname = d;
lastChange = "2018-10-26 16:56:52 +0000";
layers = (
{
layerId = "F6752803-E9E3-41A6-B92A-1FAB6ACE0E29";
paths = (
{
closed = 1;
nodes = (
"329 -22 OFFCURVE",
"412 33 OFFCURVE",
"440 80 QCURVE",
"440 80 LINE",
"440 0 LINE",
"530 0 LINE",
"530 700 LINE",
"440 700 LINE",
"440 510 LINE SMOOTH",
"440 463 OFFCURVE",
"440 420 QCURVE",
"440 420 LINE",
"414 458 OFFCURVE",
"327 510 OFFCURVE",
"270 510 QCURVE SMOOTH",
"170 510 OFFCURVE",
"35 353 OFFCURVE",
"40 250 QCURVE SMOOTH",
"47 112 OFFCURVE",
"168 -17 OFFCURVE",
"270 -20 QCURVE SMOOTH"
);
},
{
closed = 1;
nodes = (
"192 59 OFFCURVE",
"130 172 OFFCURVE",
"130 250 QCURVE SMOOTH",
"130 320 OFFCURVE",
"192 432 OFFCURVE",
"280 430 QCURVE SMOOTH",
"369 428 OFFCURVE",
"444 321 OFFCURVE",
"440 250 QCURVE SMOOTH",
"435 162 OFFCURVE",
"372 61 OFFCURVE",
"280 60 QCURVE SMOOTH"
);
}
);
width = 596;
},
{
associatedMasterId = "F6752803-E9E3-41A6-B92A-1FAB6ACE0E29";
layerId = "035A4638-D646-4452-8629-41A3576A660C";
name = "Aug 5 18, 16:55";
paths = (
{
closed = 1;
nodes = (
"329 -16 OFFCURVE",
"412 33 OFFCURVE",
"438 77 QCURVE",
"440 77 LINE",
"440 0 LINE",
"532 0 LINE",
"532 736 LINE",
"439 736 LINE",
"439 554 LINE SMOOTH",
"440 473 OFFCURVE",
"442 455 QCURVE",
"440 455 LINE",
"414 498 OFFCURVE",
"327 550 OFFCURVE",
"270 550 QCURVE SMOOTH",
"220 550 OFFCURVE",
"134 511 OFFCURVE",
"71 438 OFFCURVE",
"35 333 OFFCURVE",
"35 267 QCURVE SMOOTH",
"35 202 OFFCURVE",
"68 97 OFFCURVE",
"130 24 OFFCURVE",
"218 -16 OFFCURVE",
"272 -16 QCURVE SMOOTH"
);
},
{
closed = 1;
nodes = (
"242 61 OFFCURVE",
"186 92 OFFCURVE",
"149 147 OFFCURVE",
"130 222 OFFCURVE",
"130 266 QCURVE SMOOTH",
"130 310 OFFCURVE",
"149 386 OFFCURVE",
"186 441 OFFCURVE",
"242 472 OFFCURVE",
"279 472 QCURVE SMOOTH",
"319 472 OFFCURVE",
"381 442 OFFCURVE",
"423 387 OFFCURVE",
"444 311 OFFCURVE",
"444 266 QCURVE SMOOTH",
"444 222 OFFCURVE",
"425 147 OFFCURVE",
"384 92 OFFCURVE",
"322 61 OFFCURVE",
"279 61 QCURVE SMOOTH"
);
}
);
visible = 1;
width = 596;
},
{
layerId = "B4B9BE83-58FC-4244-9D0D-7F6B370E71EE";
paths = (
{
closed = 1;
nodes = (
"309 -21 OFFCURVE",
"394 29 OFFCURVE",
"420 80 QCURVE",
"420 80 LINE",
"420 0 LINE",
"570 0 LINE",
"570 700 LINE",
"410 700 LINE",
"410 540 LINE SMOOTH",
"410 486 OFFCURVE",
"440 440 QCURVE",
"420 420 LINE",
"388 460 OFFCURVE",
"312 507 OFFCURVE",
"260 510 QCURVE SMOOTH",
"155 516 OFFCURVE",
"27 347 OFFCURVE",
"30 250 QCURVE SMOOTH",
"34 110 OFFCURVE",
"153 -18 OFFCURVE",
"260 -20 QCURVE SMOOTH"
);
},
{
closed = 1;
nodes = (
"242 111 OFFCURVE",
"187 175 OFFCURVE",
"190 250 QCURVE SMOOTH",
"193 319 OFFCURVE",
"242 388 OFFCURVE",
"300 390 QCURVE SMOOTH",
"368 392 OFFCURVE",
"418 301 OFFCURVE",
"420 250 QCURVE SMOOTH",
"423 176 OFFCURVE",
"354 109 OFFCURVE",
"300 110 QCURVE SMOOTH"
);
}
);
width = 622;
}
);
note = uni0064;
unicode = 0064;
},
{
color = 10;
glyphname = e;
lastChange = "2018-10-27 17:45:23 +0000";
layers = (
{
layerId = "F6752803-E9E3-41A6-B92A-1FAB6ACE0E29";
paths = (
{
closed = 1;
nodes = (
"390 -10 OFFCURVE",
"480 80 OFFCURVE",
"490 150 QCURVE",
"480 160 LINE",
"400 160 LINE",
"390 150 LINE",
"360 80 OFFCURVE",
"280 80 QCURVE SMOOTH",
"220 80 OFFCURVE",
"160 140 OFFCURVE",
"150 200 QCURVE",
"160 210 LINE",
"490 210 LINE",
"500 220 LINE",
"500 250 LINE SMOOTH",
"500 367 OFFCURVE",
"381 510 OFFCURVE",
"270 510 QCURVE SMOOTH",
"159 510 OFFCURVE",
"40 367 OFFCURVE",
"40 250 QCURVE SMOOTH",
"40 131 OFFCURVE",
"160 -10 OFFCURVE",
"280 -10 QCURVE SMOOTH"
);
},
{
closed = 1;
nodes = (
"150 300 LINE",
"150 349 OFFCURVE",
"207 420 OFFCURVE",
"270 420 QCURVE SMOOTH",
"333 420 OFFCURVE",
"390 349 OFFCURVE",
"390 300 QCURVE",
"380 290 LINE",
"160 290 LINE"
);
}
);
width = 540;
},
{
layerId = "B4B9BE83-58FC-4244-9D0D-7F6B370E71EE";
paths = (
{
closed = 1;
nodes = (
"381 -10 OFFCURVE",
"480 70 OFFCURVE",
"490 150 QCURVE",
"480 160 LINE",
"320 160 LINE",
"310 150 LINE",
"303 110 OFFCURVE",
"270 110 QCURVE SMOOTH",
"250 110 OFFCURVE",
"230 140 OFFCURVE",
"230 190 QCURVE",
"230 200 LINE",
"490 200 LINE",
"500 210 LINE",
"500 250 LINE SMOOTH",
"500 376 OFFCURVE",
"370 510 OFFCURVE",
"260 510 QCURVE SMOOTH",
"150 510 OFFCURVE",
"40 381 OFFCURVE",
"40 250 QCURVE SMOOTH",
"40 133 OFFCURVE",
"152 -10 OFFCURVE",
"280 -10 QCURVE SMOOTH"
);
},
{
closed = 1;
nodes = (
"230 310 LINE",
"230 360 OFFCURVE",
"250 380 OFFCURVE",
"270 380 QCURVE SMOOTH",
"290 380 OFFCURVE",
"310 360 OFFCURVE",
"310 310 QCURVE",
"300 300 LINE",
"240 300 LINE"
);
}
);
width = 540;
},
{
associatedMasterId = "B4B9BE83-58FC-4244-9D0D-7F6B370E71EE";
layerId = "CB10BC0B-5F0B-498C-9F9B-81E4F6DD5562";
name = "Oct 27 18, 00:57";
paths = (
{
closed = 1;
nodes = (
"371 -10 OFFCURVE",
"480 75 OFFCURVE",
"490 140 QCURVE",
"480 150 LINE",
"360 150 LINE",
"350 140 LINE",
"335 110 OFFCURVE",
"280 110 QCURVE SMOOTH",
"250 110 OFFCURVE",
"200 140 OFFCURVE",
"180 190 QCURVE",
"190 200 LINE",
"500 200 LINE",
"510 210 LINE",
"510 250 LINE SMOOTH",
"510 376 OFFCURVE",
"371 510 OFFCURVE",
"270 510 QCURVE SMOOTH",
"153 510 OFFCURVE",
"30 381 OFFCURVE",
"30 250 QCURVE SMOOTH",
"30 133 OFFCURVE",
"152 -10 OFFCURVE",
"280 -10 QCURVE SMOOTH"
);
},
{
closed = 1;
nodes = (
"180 310 LINE",
"180 338 OFFCURVE",
"225 390 OFFCURVE",
"270 390 QCURVE SMOOTH",
"315 390 OFFCURVE",
"360 338 OFFCURVE",
"360 310 QCURVE",
"350 300 LINE",
"190 300 LINE"
);
}
);
width = 550;
}
);
note = uni0065;
unicode = 0065;
},
{
color = 10;
glyphname = f;
lastChange = "2018-10-27 17:54:30 +0000";
layers = (
{
layerId = "F6752803-E9E3-41A6-B92A-1FAB6ACE0E29";
paths = (
{
closed = 1;
nodes = (
"210 0 LINE",
"220 10 LINE",
"220 400 LINE",
"230 410 LINE",
"330 410 LINE",
"340 420 LINE",
"340 490 LINE",
"330 500 LINE",
"230 500 LINE",
"220 510 LINE",
"220 550 LINE SMOOTH",
"220 590 OFFCURVE",
"260 590 QCURVE SMOOTH",
"340 590 LINE",
"350 600 LINE",
"350 670 LINE",
"340 680 LINE",
"260 680 LINE SMOOTH",
"202 680 OFFCURVE",
"120 613 OFFCURVE",
"120 550 QCURVE SMOOTH",
"120 510 LINE",
"110 500 LINE",
"40 500 LINE",
"30 490 LINE",
"30 420 LINE",
"40 410 LINE",
"110 410 LINE",
"120 400 LINE",
"120 10 LINE",
"130 0 LINE"
);
}
);
width = 370;
},
{
layerId = "B4B9BE83-58FC-4244-9D0D-7F6B370E71EE";
paths = (
{
closed = 1;
nodes = (
"260 0 LINE",
"270 10 LINE",
"270 350 LINE",
"280 360 LINE",
"330 360 LINE",
"340 370 LINE",
"340 490 LINE",
"330 500 LINE",
"280 500 LINE",
"270 510 LINE",
"270 530 LINE SMOOTH",
"270 560 OFFCURVE",
"300 560 QCURVE SMOOTH",
"340 560 LINE",
"350 570 LINE",
"350 690 LINE",
"340 700 LINE",
"270 700 LINE SMOOTH",
"196 700 OFFCURVE",
"90 607 OFFCURVE",
"90 530 QCURVE SMOOTH",
"90 510 LINE",
"80 500 LINE",
"40 500 LINE",
"30 490 LINE",
"30 370 LINE",
"40 360 LINE",
"80 360 LINE",
"90 350 LINE",
"90 10 LINE",
"100 0 LINE"
);
}
);
width = 370;
}
);
note = uni0066;
unicode = 0066;
},
{
color = 10;
glyphname = g;
lastChange = "2018-10-26 16:56:52 +0000";
layers = (
{
layerId = "F6752803-E9E3-41A6-B92A-1FAB6ACE0E29";
paths = (
{
closed = 1;
nodes = (
"415 -192 OFFCURVE",
"530 -72 OFFCURVE",
"530 20 QCURVE SMOOTH",
"530 500 LINE",
"440 500 LINE",
"440 430 LINE",
"440 430 LINE",
"381 511 OFFCURVE",
"270 510 QCURVE SMOOTH",
"176 509 OFFCURVE",
"43 370 OFFCURVE",
"40 270 QCURVE SMOOTH",
"37 168 OFFCURVE",
"157 24 OFFCURVE",
"280 20 QCURVE SMOOTH",
"375 17 OFFCURVE",
"440 110 QCURVE",
"440 110 LINE",
"438 56 OFFCURVE",
"440 30 QCURVE SMOOTH",
"446 -51 OFFCURVE",
"369 -116 OFFCURVE",
"290 -120 QCURVE SMOOTH",
"229 -123 OFFCURVE",
"153 -79 OFFCURVE",
"150 -40 QCURVE",
"60 -40 LINE",
"68 -109 OFFCURVE",
"185 -188 OFFCURVE",
"290 -190 QCURVE SMOOTH"
);
},
{
closed = 1;
nodes = (
"214 100 OFFCURVE",
"138 180 OFFCURVE",
"140 270 QCURVE SMOOTH",
"142 342 OFFCURVE",
"212 434 OFFCURVE",
"290 430 QCURVE SMOOTH",
"367 426 OFFCURVE",
"444 347 OFFCURVE",
"440 270 QCURVE SMOOTH",
"436 200 OFFCURVE",
"381 100 OFFCURVE",
"290 100 QCURVE SMOOTH"
);
}
);
width = 595;
},
{
layerId = "B4B9BE83-58FC-4244-9D0D-7F6B370E71EE";
paths = (
{
closed = 1;
nodes = (
"418 -195 OFFCURVE",
"560 -73 OFFCURVE",
"560 50 QCURVE SMOOTH",
"560 500 LINE",
"410 500 LINE",
"410 430 LINE",
"410 430 LINE",
"360 513 OFFCURVE",
"260 510 QCURVE SMOOTH",
"156 507 OFFCURVE",
"31 379 OFFCURVE",
"30 270 QCURVE SMOOTH",
"29 135 OFFCURVE",
"177 33 OFFCURVE",
"260 30 QCURVE SMOOTH",
"355 27 OFFCURVE",
"410 110 QCURVE",
"410 110 LINE",
"408 84 OFFCURVE",
"410 40 QCURVE SMOOTH",
"413 -22 OFFCURVE",
"355 -73 OFFCURVE",
"300 -70 QCURVE SMOOTH",
"251 -67 OFFCURVE",
"204 -43 OFFCURVE",
"200 -20 QCURVE",
"40 -20 LINE",
"55 -98 OFFCURVE",
"189 -185 OFFCURVE",
"300 -190 QCURVE SMOOTH"
);
},
{
closed = 1;
nodes = (
"245 149 OFFCURVE",
"183 206 OFFCURVE",
"190 270 QCURVE SMOOTH",
"195 319 OFFCURVE",
"245 394 OFFCURVE",
"300 390 QCURVE SMOOTH",
"355 386 OFFCURVE",
"413 315 OFFCURVE",
"410 270 QCURVE SMOOTH",
"407 220 OFFCURVE",
"364 151 OFFCURVE",
"300 150 QCURVE SMOOTH"
);
}
);
width = 613;
}
);
note = uni0067;
unicode = 0067;
},
{
color = 10;
glyphname = h;
lastChange = "2018-10-27 16:26:14 +0000";
layers = (
{
layerId = "F6752803-E9E3-41A6-B92A-1FAB6ACE0E29";
paths = (
{
closed = 1;
nodes = (
"160 0 LINE",
"160 290 LINE SMOOTH",
"160 359 OFFCURVE",
"239 432 OFFCURVE",
"300 430 QCURVE SMOOTH",
"355 428 OFFCURVE",
"420 376 OFFCURVE",
"420 320 QCURVE SMOOTH",
"420 0 LINE",
"510 0 LINE",
"510 340 LINE SMOOTH",
"510 420 OFFCURVE",
"414 510 OFFCURVE",
"330 510 QCURVE SMOOTH",
"270 510 OFFCURVE",
"187 462 OFFCURVE",
"160 420 QCURVE",
"150 420 LINE",
"155 450 OFFCURVE",
"160 510 QCURVE",
"160 700 LINE",
"60 700 LINE",
"60 0 LINE"
);
}
);
width = 571;
},
{
layerId = "B4B9BE83-58FC-4244-9D0D-7F6B370E71EE";
paths = (
{
closed = 1;
nodes = (
"210 0 LINE",
"210 260 LINE SMOOTH",
"210 311 OFFCURVE",
"265 377 OFFCURVE",
"310 380 QCURVE SMOOTH",
"355 383 OFFCURVE",
"400 324 OFFCURVE",
"400 280 QCURVE SMOOTH",
"400 0 LINE",
"560 0 LINE",
"560 310 LINE SMOOTH",
"560 400 OFFCURVE",
"459 507 OFFCURVE",
"370 510 QCURVE SMOOTH",
"315 512 OFFCURVE",
"235 459 OFFCURVE",
"210 420 QCURVE",
"210 420 LINE",
"208 472 OFFCURVE",
"210 530 QCURVE",
"210 700 LINE",
"50 700 LINE",
"50 0 LINE"
);
}
);
width = 604;
}
);
note = uni0068;
unicode = 0068;
},
{
color = 10;
glyphname = i;
lastChange = "2018-10-26 16:56:52 +0000";
layers = (
{
layerId = "F6752803-E9E3-41A6-B92A-1FAB6ACE0E29";
paths = (
{
closed = 1;
nodes = (
"170 0 LINE",
"170 540 LINE",
"70 540 LINE",
"70 0 LINE"
);
},
{
closed = 1;
nodes = (
"170 640 LINE",
"170 740 LINE",
"70 740 LINE",
"70 640 LINE"
);
}
);
width = 221;
},
{
layerId = "B4B9BE83-58FC-4244-9D0D-7F6B370E71EE";
paths = (
{
closed = 1;
nodes = (
"210 0 LINE",
"210 530 LINE",
"50 530 LINE",
"50 0 LINE"
);
},
{
closed = 1;
nodes = (
"210 610 LINE",
"210 740 LINE",
"50 740 LINE",
"50 610 LINE"
);
}
);
width = 255;
}
);
note = uni0069;
unicode = 0069;
},
{
color = 10;
glyphname = j;
lastChange = "2018-10-26 16:56:52 +0000";
layers = (
{
layerId = "F6752803-E9E3-41A6-B92A-1FAB6ACE0E29";
paths = (
{
closed = 1;
nodes = (
"87 -170 OFFCURVE",
"160 -115 OFFCURVE",
"160 -50 QCURVE SMOOTH",
"160 490 LINE",
"60 490 LINE",
"60 -40 LINE SMOOTH",
"60 -70 OFFCURVE",
"37 -93 OFFCURVE",
"10 -90 QCURVE",
"-20 -90 LINE",
"-20 -170 LINE",
"30 -170 LINE"
);
},
{
closed = 1;
nodes = (
"60 590 LINE",
"160 590 LINE",
"160 700 LINE",
"60 700 LINE"
);
}
);
width = 222;
},
{
layerId = "B4B9BE83-58FC-4244-9D0D-7F6B370E71EE";
paths = (
{
closed = 1;
nodes = (
"138 -189 OFFCURVE",
"220 -104 OFFCURVE",
"220 -10 QCURVE SMOOTH",
"220 490 LINE",
"60 490 LINE",
"60 -10 LINE SMOOTH",
"60 -36 OFFCURVE",
"39 -60 OFFCURVE",
"20 -60 QCURVE SMOOTH",
"-30 -60 LINE",
"-30 -170 LINE",
"60 -180 LINE SMOOTH"
);
},
{
closed = 1;
nodes = (
"60 560 LINE",
"220 560 LINE",
"220 700 LINE",
"60 700 LINE"
);
}
);
width = 261;
}
);
note = uni006A;
unicode = 006A;
},
{
color = 10;
glyphname = k;
lastChange = "2018-10-26 16:56:52 +0000";
layers = (
{
layerId = "F6752803-E9E3-41A6-B92A-1FAB6ACE0E29";
paths = (
{
closed = 1;
nodes = (
"160 0 LINE",
"160 210 LINE",
"230 280 LINE",
"420 0 LINE",
"530 0 LINE",
"300 340 LINE",
"500 530 LINE",
"390 530 LINE",
"150 310 LINE",
"160 328 OFFCURVE",
"160 390 QCURVE SMOOTH",
"160 700 LINE",
"60 700 LINE",
"60 0 LINE"
);
}
);
width = 542;
},
{
layerId = "B4B9BE83-58FC-4244-9D0D-7F6B370E71EE";
paths = (
{
closed = 1;
nodes = (
"210 0 LINE",
"210 180 LINE",
"260 230 LINE",
"400 0 LINE",
"580 0 LINE",
"370 340 LINE",
"560 530 LINE",
"380 530 LINE",
"200 340 LINE",
"210 432 OFFCURVE",
"210 510 QCURVE SMOOTH",
"210 700 LINE",
"50 700 LINE",
"50 0 LINE"
);
}
);
width = 590;
}
);
note = uni006B;
unicode = 006B;
},
{
color = 10;
glyphname = l;
lastChange = "2018-10-26 16:56:52 +0000";
layers = (
{
layerId = "F6752803-E9E3-41A6-B92A-1FAB6ACE0E29";
paths = (
{
closed = 1;
nodes = (
"160 0 LINE",
"160 700 LINE",
"70 700 LINE",
"70 0 LINE"
);
}
);
width = 227;
},
{
layerId = "B4B9BE83-58FC-4244-9D0D-7F6B370E71EE";
paths = (
{
closed = 1;
nodes = (
"210 0 LINE",
"210 700 LINE",
"50 700 LINE",
"50 0 LINE"
);
}
);
width = 265;
}
);
note = uni006C;
unicode = 006C;
},
{
color = 10;
glyphname = m;
lastChange = "2018-10-26 16:56:52 +0000";
layers = (
{
layerId = "F6752803-E9E3-41A6-B92A-1FAB6ACE0E29";
paths = (
{
closed = 1;
nodes = (
"160 0 LINE",
"160 290 LINE SMOOTH",
"160 343 OFFCURVE",
"226 433 OFFCURVE",
"290 430 QCURVE SMOOTH",
"332 428 OFFCURVE",
"380 378 OFFCURVE",
"380 330 QCURVE SMOOTH",
"380 0 LINE",
"470 0 LINE",
"470 290 LINE SMOOTH",
"470 363 OFFCURVE",
"555 433 OFFCURVE",
"600 430 QCURVE SMOOTH",
"642 427 OFFCURVE",
"700 378 OFFCURVE",
"700 330 QCURVE SMOOTH",
"700 0 LINE",
"790 0 LINE",
"790 340 LINE SMOOTH",
"790 421 OFFCURVE",
"699 511 OFFCURVE",
"630 510 QCURVE SMOOTH",
"516 508 OFFCURVE",
"460 410 QCURVE",
"460 410 LINE",
"417 511 OFFCURVE",
"320 510 QCURVE SMOOTH",
"216 509 OFFCURVE",
"160 420 QCURVE",
"160 420 LINE",
"160 500 LINE",
"60 500 LINE",
"60 0 LINE"
);
}
);
width = 852;
},
{
associatedMasterId = "F6752803-E9E3-41A6-B92A-1FAB6ACE0E29";
layerId = "E14AF7DC-3230-4DEE-AF01-5E2EA87A8F40";
name = "Aug 5 18, 17:27";
paths = (
{
closed = 1;
nodes = (
"64 0 LINE",
"157 0 LINE",
"157 322 LINE SMOOTH",
"157 353 OFFCURVE",
"181 404 OFFCURVE",
"218 442 OFFCURVE",
"266 463 OFFCURVE",
"290 463 QCURVE SMOOTH",
"332 463 OFFCURVE",
"382 408 OFFCURVE",
"382 358 QCURVE SMOOTH",
"382 0 LINE",
"474 0 LINE",
"474 322 LINE SMOOTH",
"474 353 OFFCURVE",
"495 404 OFFCURVE",
"529 442 OFFCURVE",
"575 463 OFFCURVE",
"601 463 QCURVE SMOOTH",
"642 463 OFFCURVE",
"698 408 OFFCURVE",
"698 358 QCURVE SMOOTH",
"698 0 LINE",
"791 0 LINE",
"791 366 LINE SMOOTH",
"791 451 OFFCURVE",
"699 541 OFFCURVE",
"625 541 QCURVE SMOOTH",
"576 541 OFFCURVE",
"488 492 OFFCURVE",
"459 441 QCURVE",
"457 441 LINE",
"440 491 OFFCURVE",
"367 541 OFFCURVE",
"318 541 QCURVE SMOOTH",
"266 541 OFFCURVE",
"184 492 OFFCURVE",
"159 448 QCURVE",
"156 448 LINE",
"156 528 LINE",
"64 528 LINE"
);
}
);
visible = 1;
width = 852;
},
{
layerId = "B4B9BE83-58FC-4244-9D0D-7F6B370E71EE";
paths = (
{
closed = 1;
nodes = (
"210 0 LINE",
"210 270 LINE SMOOTH",
"210 320 OFFCURVE",
"259 384 OFFCURVE",
"300 380 QCURVE SMOOTH",
"340 376 OFFCURVE",
"380 335 OFFCURVE",
"380 290 QCURVE SMOOTH",
"380 0 LINE",
"540 0 LINE",
"540 270 LINE SMOOTH",
"540 320 OFFCURVE",
"585 384 OFFCURVE",
"630 380 QCURVE SMOOTH",
"665 377 OFFCURVE",
"710 335 OFFCURVE",
"710 290 QCURVE SMOOTH",
"710 0 LINE",
"860 0 LINE",
"860 320 LINE SMOOTH",
"860 406 OFFCURVE",
"772 513 OFFCURVE",
"680 510 QCURVE SMOOTH",
"572 506 OFFCURVE",
"510 410 QCURVE",
"510 410 LINE",
"471 513 OFFCURVE",
"370 510 QCURVE SMOOTH",
"269 507 OFFCURVE",
"210 420 QCURVE",
"200 420 LINE",
"200 500 LINE",
"50 500 LINE",
"50 0 LINE"
);
}
);
width = 910;
}
);
note = uni006D;
unicode = 006D;
},
{
color = 10;
glyphname = n;
lastChange = "2018-10-27 17:44:25 +0000";
layers = (
{
layerId = "F6752803-E9E3-41A6-B92A-1FAB6ACE0E29";
paths = (
{
closed = 1;
nodes = (
"140 0 LINE",
"150 10 LINE",
"150 250 LINE SMOOTH",
"150 350 OFFCURVE",
"210 420 OFFCURVE",
"290 420 QCURVE SMOOTH",
"340 420 OFFCURVE",
"390 360 OFFCURVE",
"390 300 QCURVE SMOOTH",
"390 10 LINE",
"400 0 LINE",
"480 0 LINE",
"490 10 LINE",
"490 300 LINE SMOOTH",
"490 410 OFFCURVE",
"400 510 OFFCURVE",
"300 510 QCURVE SMOOTH",
"210 510 OFFCURVE",
"160 450 QCURVE",
"150 450 LINE",
"140 490 LINE",
"130 500 LINE",
"60 500 LINE",
"50 490 LINE",
"50 10 LINE",
"60 0 LINE"
);
}
);
width = 550;
},
{
layerId = "B4B9BE83-58FC-4244-9D0D-7F6B370E71EE";
paths = (
{
closed = 1;
nodes = (
"220 0 LINE",
"230 10 LINE",
"230 300 LINE SMOOTH",
"230 330 OFFCURVE",
"250 350 OFFCURVE",
"270 350 QCURVE SMOOTH",
"290 350 OFFCURVE",
"310 330 OFFCURVE",
"310 300 QCURVE SMOOTH",
"310 10 LINE",
"320 0 LINE",
"480 0 LINE",
"490 10 LINE",
"490 300 LINE SMOOTH",
"490 410 OFFCURVE",
"390 510 OFFCURVE",
"320 510 QCURVE SMOOTH",
"260 510 OFFCURVE",
"210 450 QCURVE",
"200 450 LINE",
"190 490 LINE",
"180 500 LINE",
"60 500 LINE",
"50 490 LINE",
"50 10 LINE",
"60 0 LINE"
);
}
);
width = 550;
}
);
note = uni006E;
unicode = 006E;
},
{
color = 10;
glyphname = o;
lastChange = "2018-10-26 16:56:52 +0000";
layers = (
{
layerId = "F6752803-E9E3-41A6-B92A-1FAB6ACE0E29";
paths = (
{
closed = 1;
nodes = (
"419 -25 OFFCURVE",
"559 129 OFFCURVE",
"560 250 QCURVE SMOOTH",
"561 346 OFFCURVE",
"419 510 OFFCURVE",
"300 510 QCURVE SMOOTH",
"177 510 OFFCURVE",
"35 346 OFFCURVE",
"40 250 QCURVE SMOOTH",
"46 129 OFFCURVE",
"177 -15 OFFCURVE",
"300 -20 QCURVE SMOOTH"
);
},
{
closed = 1;
nodes = (
"216 59 OFFCURVE",
"130 154 OFFCURVE",
"130 250 QCURVE SMOOTH",
"130 321 OFFCURVE",
"216 436 OFFCURVE",
"300 440 QCURVE SMOOTH",
"378 444 OFFCURVE",
"464 321 OFFCURVE",
"460 250 QCURVE SMOOTH",
"455 154 OFFCURVE",
"378 61 OFFCURVE",
"300 60 QCURVE SMOOTH"
);
}
);
width = 594;
},
{
layerId = "B4B9BE83-58FC-4244-9D0D-7F6B370E71EE";
paths = (
{
closed = 1;
nodes = (
"432 -23 OFFCURVE",
"589 125 OFFCURVE",
"590 250 QCURVE SMOOTH",
"591 345 OFFCURVE",
"432 507 OFFCURVE",
"310 510 QCURVE SMOOTH",
"185 513 OFFCURVE",
"27 365 OFFCURVE",
"30 250 QCURVE SMOOTH",
"33 125 OFFCURVE",
"185 -17 OFFCURVE",
"310 -20 QCURVE SMOOTH"
);
},
{
closed = 1;
nodes = (
"248 103 OFFCURVE",
"184 170 OFFCURVE",
"190 250 QCURVE SMOOTH",
"194 301 OFFCURVE",
"248 395 OFFCURVE",
"310 400 QCURVE SMOOTH",
"367 405 OFFCURVE",
"430 301 OFFCURVE",
"430 250 QCURVE SMOOTH",
"430 170 OFFCURVE",
"367 97 OFFCURVE",
"310 100 QCURVE SMOOTH"
);
}
);
width = 616;
}
);
note = uni006F;
unicode = 006F;
},
{
color = 10;
glyphname = p;
lastChange = "2018-10-26 16:56:52 +0000";
layers = (
{
layerId = "F6752803-E9E3-41A6-B92A-1FAB6ACE0E29";
paths = (
{
closed = 1;
nodes = (
"160 -180 LINE",
"160 -20 LINE SMOOTH",
"160 57 OFFCURVE",
"160 70 QCURVE",
"160 70 LINE",
"222 -16 OFFCURVE",
"330 -20 QCURVE SMOOTH",
"441 -24 OFFCURVE",
"551 102 OFFCURVE",
"550 250 QCURVE SMOOTH",
"549 364 OFFCURVE",
"436 512 OFFCURVE",
"330 510 QCURVE SMOOTH",
"222 508 OFFCURVE",
"160 410 QCURVE",
"160 410 LINE",
"160 500 LINE",
"60 500 LINE",
"60 -180 LINE"
);
},
{
closed = 1;
nodes = (
"242 59 OFFCURVE",
"151 153 OFFCURVE",
"150 250 QCURVE SMOOTH",
"149 319 OFFCURVE",
"235 432 OFFCURVE",
"320 430 QCURVE SMOOTH",
"405 428 OFFCURVE",
"456 340 OFFCURVE",
"460 250 QCURVE SMOOTH",
"465 141 OFFCURVE",
"384 61 OFFCURVE",
"320 60 QCURVE SMOOTH"
);
}
);
width = 596;
},
{
layerId = "B4B9BE83-58FC-4244-9D0D-7F6B370E71EE";
paths = (
{
closed = 1;
nodes = (
"210 -180 LINE",
"210 -50 LINE SMOOTH",
"210 0 OFFCURVE",
"200 70 QCURVE",
"210 70 LINE",
"270 -17 OFFCURVE",
"360 -20 QCURVE SMOOTH",
"476 -24 OFFCURVE",
"597 101 OFFCURVE",
"600 250 QCURVE SMOOTH",
"602 357 OFFCURVE",
"471 517 OFFCURVE",
"370 520 QCURVE SMOOTH",
"260 523 OFFCURVE",
"210 430 QCURVE",
"200 430 LINE",
"200 500 LINE",
"50 500 LINE",
"50 -180 LINE"
);
},
{
closed = 1;
nodes = (
"266 116 OFFCURVE",
"204 172 OFFCURVE",
"200 240 QCURVE SMOOTH",
"195 325 OFFCURVE",
"274 392 OFFCURVE",
"320 390 QCURVE SMOOTH",
"382 387 OFFCURVE",
"438 313 OFFCURVE",
"440 240 QCURVE SMOOTH",
"442 169 OFFCURVE",
"380 105 OFFCURVE",
"330 110 QCURVE SMOOTH"
);
}
);
width = 624;
}
);
note = uni0070;
unicode = 0070;
},
{
color = 10;
glyphname = q;
lastChange = "2018-10-26 16:56:52 +0000";
layers = (
{
layerId = "F6752803-E9E3-41A6-B92A-1FAB6ACE0E29";
paths = (
{
closed = 1;
nodes = (
"440 -180 LINE",
"530 -180 LINE",
"530 490 LINE",
"440 490 LINE",
"440 420 LINE",
"440 420 LINE",
"327 510 OFFCURVE",
"270 510 QCURVE SMOOTH",
"149 510 OFFCURVE",
"38 363 OFFCURVE",
"40 250 QCURVE SMOOTH",
"42 112 OFFCURVE",
"148 -16 OFFCURVE",
"270 -20 QCURVE SMOOTH",
"329 -22 OFFCURVE",
"440 70 QCURVE",
"440 70 LINE",
"440 28 OFFCURVE",
"440 -20 QCURVE SMOOTH"
);
},
{
closed = 1;
nodes = (
"202 59 OFFCURVE",
"132 151 OFFCURVE",
"130 250 QCURVE SMOOTH",
"128 349 OFFCURVE",
"202 431 OFFCURVE",
"280 430 QCURVE SMOOTH",
"361 429 OFFCURVE",
"444 350 OFFCURVE",
"440 250 QCURVE SMOOTH",
"436 151 OFFCURVE",
"364 61 OFFCURVE",
"280 60 QCURVE SMOOTH"
);
}
);
width = 596;
},
{
layerId = "B4B9BE83-58FC-4244-9D0D-7F6B370E71EE";
paths = (
{
closed = 1;
nodes = (
"420 -180 LINE",
"570 -180 LINE",
"570 530 LINE",
"420 530 LINE",
"420 460 LINE",
"420 460 LINE",
"366 547 OFFCURVE",
"260 550 QCURVE SMOOTH",
"156 553 OFFCURVE",
"28 387 OFFCURVE",
"30 270 QCURVE SMOOTH",
"33 121 OFFCURVE",
"178 -17 OFFCURVE",
"260 -20 QCURVE SMOOTH",
"355 -23 OFFCURVE",
"420 70 QCURVE",
"420 70 LINE",
"420 -12 OFFCURVE",
"420 -50 QCURVE SMOOTH"
);
},
{
closed = 1;
nodes = (
"245 115 OFFCURVE",
"187 189 OFFCURVE",
"190 260 QCURVE SMOOTH",
"193 332 OFFCURVE",
"242 422 OFFCURVE",
"300 420 QCURVE SMOOTH",
"371 418 OFFCURVE",
"421 325 OFFCURVE",
"420 260 QCURVE SMOOTH",
"419 192 OFFCURVE",
"359 105 OFFCURVE",
"300 110 QCURVE SMOOTH"
);
}
);
width = 624;
}
);
note = uni0071;
unicode = 0071;
},
{
color = 10;
glyphname = r;
lastChange = "2018-10-26 16:56:52 +0000";
layers = (
{
layerId = "F6752803-E9E3-41A6-B92A-1FAB6ACE0E29";
paths = (
{
closed = 1;
nodes = (
"160 0 LINE",
"160 250 LINE SMOOTH",
"160 331 OFFCURVE",
"230 414 OFFCURVE",
"310 420 QCURVE SMOOTH",
"324 421 OFFCURVE",
"350 410 QCURVE",
"350 500 LINE",
"344 505 OFFCURVE",
"320 510 QCURVE SMOOTH",
"226 530 OFFCURVE",
"160 400 QCURVE",
"160 400 LINE",
"160 500 LINE",
"60 500 LINE",
"60 0 LINE"
);
}
);
width = 379;
},
{
layerId = "B4B9BE83-58FC-4244-9D0D-7F6B370E71EE";
paths = (
{
closed = 1;
nodes = (
"240 0 LINE",
"240 150 LINE SMOOTH",
"240 221 OFFCURVE",
"252 249 OFFCURVE",
"280 250 QCURVE SMOOTH",
"306 251 OFFCURVE",
"320 240 QCURVE",
"320 530 LINE",
"306 537 OFFCURVE",
"280 540 QCURVE SMOOTH",
"256 543 OFFCURVE",
"230 430 QCURVE",
"230 430 LINE",
"210 530 LINE",
"10 530 LINE",
"10 0 LINE"
);
}
);
width = 325;
}
);
note = uni0072;
unicode = 0072;
},
{
color = 10;
glyphname = s;
lastChange = "2018-10-27 16:25:46 +0000";
layers = (
{
layerId = "F6752803-E9E3-41A6-B92A-1FAB6ACE0E29";
paths = (
{
closed = 1;
nodes = (
"357 -23 OFFCURVE",
"485 68 OFFCURVE",
"490 150 QCURVE SMOOTH",
"494 216 OFFCURVE",
"377 285 OFFCURVE",
"290 300 QCURVE SMOOTH",
"211 314 OFFCURVE",
"144 331 OFFCURVE",
"140 360 QCURVE SMOOTH",
"135 395 OFFCURVE",
"193 439 OFFCURVE",
"250 440 QCURVE SMOOTH",
"356 442 OFFCURVE",
"370 350 QCURVE",
"460 350 LINE",
"455 423 OFFCURVE",
"351 509 OFFCURVE",
"250 510 QCURVE SMOOTH",
"156 511 OFFCURVE",
"53 428 OFFCURVE",
"50 360 QCURVE SMOOTH",
"47 285 OFFCURVE",
"154 236 OFFCURVE",
"250 220 QCURVE SMOOTH",
"324 208 OFFCURVE",
"393 188 OFFCURVE",
"390 140 QCURVE SMOOTH",
"388 108 OFFCURVE",
"336 59 OFFCURVE",
"270 60 QCURVE SMOOTH",
"213 61 OFFCURVE",
"128 104 OFFCURVE",
"120 160 QCURVE",
"30 160 LINE",
"36 81 OFFCURVE",
"158 -16 OFFCURVE",
"270 -20 QCURVE SMOOTH"
);
}
);
width = 522;
},
{
layerId = "B4B9BE83-58FC-4244-9D0D-7F6B370E71EE";
paths = (
{
closed = 1;
nodes = (
"385 -23 OFFCURVE",
"514 75 OFFCURVE",
"510 160 QCURVE SMOOTH",
"507 218 OFFCURVE",
"406 298 OFFCURVE",
"310 310 QCURVE SMOOTH",
"253 317 OFFCURVE",
"179 328 OFFCURVE",
"180 350 QCURVE SMOOTH",
"181 379 OFFCURVE",
"222 407 OFFCURVE",
"260 410 QCURVE SMOOTH",
"333 416 OFFCURVE",
"350 350 QCURVE",
"490 350 LINE",
"483 420 OFFCURVE",
"369 507 OFFCURVE",
"260 510 QCURVE SMOOTH",
"151 513 OFFCURVE",
"34 412 OFFCURVE",
"30 340 QCURVE SMOOTH",
"26 264 OFFCURVE",
"129 212 OFFCURVE",
"230 200 QCURVE SMOOTH",
"255 197 OFFCURVE",
"362 188 OFFCURVE",
"360 150 QCURVE SMOOTH",
"358 118 OFFCURVE",
"316 86 OFFCURVE",
"270 90 QCURVE SMOOTH",
"228 94 OFFCURVE",
"173 126 OFFCURVE",
"170 160 QCURVE",
"20 160 LINE",
"21 94 OFFCURVE",
"145 -17 OFFCURVE",
"270 -20 QCURVE SMOOTH"
);
}
);
width = 539;
},
{
associatedMasterId = "B4B9BE83-58FC-4244-9D0D-7F6B370E71EE";
layerId = "3A18283A-0EA8-438D-AE36-F6FD7894AE0F";
name = "Aug 5 18, 17:35";
paths = (
{
closed = 1;
nodes = (
"325 -17 OFFCURVE",
"413 5 OFFCURVE",
"477 49 OFFCURVE",
"513 115 OFFCURVE",
"513 158 QCURVE SMOOTH",
"513 208 OFFCURVE",
"476 271 OFFCURVE",
"418 309 OFFCURVE",
"346 328 OFFCURVE",
"310 334 QCURVE SMOOTH",
"283 339 OFFCURVE",
"235 347 OFFCURVE",
"199 359 OFFCURVE",
"179 378 OFFCURVE",
"179 393 QCURVE SMOOTH",
"179 419 OFFCURVE",
"222 447 OFFCURVE",
"258 447 QCURVE SMOOTH",
"333 447 OFFCURVE",
"348 390 QCURVE",
"494 390 LINE",
"483 460 OFFCURVE",
"369 547 OFFCURVE",
"258 547 QCURVE SMOOTH",
"211 547 OFFCURVE",
"129 526 OFFCURVE",
"69 484 OFFCURVE",
"34 422 OFFCURVE",
"34 381 QCURVE SMOOTH",
"34 334 OFFCURVE",
"67 276 OFFCURVE",
"121 240 OFFCURVE",
"189 222 OFFCURVE",
"225 215 QCURVE SMOOTH",
"253 210 OFFCURVE",
"302 201 OFFCURVE",
"340 187 OFFCURVE",
"362 165 OFFCURVE",
"362 147 QCURVE SMOOTH",
"362 118 OFFCURVE",
"316 86 OFFCURVE",
"274 86 QCURVE SMOOTH",
"228 86 OFFCURVE",
"173 126 OFFCURVE",
"166 164 QCURVE",
"18 164 LINE",
"21 124 OFFCURVE",
"58 57 OFFCURVE",
"123 9 OFFCURVE",
"215 -17 OFFCURVE",
"273 -17 QCURVE SMOOTH"
);
}
);
width = 539;
}
);
note = uni0073;
unicode = 0073;
},
{
color = 10;
glyphname = t;
lastChange = "2018-10-27 17:54:13 +0000";
layers = (
{
layerId = "F6752803-E9E3-41A6-B92A-1FAB6ACE0E29";
paths = (
{
closed = 1;
nodes = (
"330 0 LINE",
"340 10 LINE",
"340 80 LINE",
"330 90 LINE",
"260 90 LINE SMOOTH",
"220 90 OFFCURVE",
"220 130 QCURVE SMOOTH",
"220 400 LINE",
"230 410 LINE",
"330 410 LINE",
"340 420 LINE",
"340 490 LINE",
"330 500 LINE",
"230 500 LINE",
"220 510 LINE",
"220 600 LINE",
"210 610 LINE",
"130 610 LINE",
"120 600 LINE",
"120 510 LINE",
"110 500 LINE",
"40 500 LINE",
"30 490 LINE",
"30 420 LINE",
"40 410 LINE",
"110 410 LINE",
"120 400 LINE",
"120 130 LINE SMOOTH",
"120 67 OFFCURVE",
"202 0 OFFCURVE",
"260 0 QCURVE SMOOTH"
);
}
);
width = 360;
},
{
layerId = "B4B9BE83-58FC-4244-9D0D-7F6B370E71EE";
paths = (
{
closed = 1;
nodes = (
"330 0 LINE",
"340 10 LINE",
"340 130 LINE",
"330 140 LINE",
"290 140 LINE SMOOTH",
"260 140 OFFCURVE",
"260 170 QCURVE SMOOTH",
"260 350 LINE",
"270 360 LINE",
"320 360 LINE",
"330 370 LINE",
"330 490 LINE",
"320 500 LINE",
"270 500 LINE",
"260 510 LINE",
"260 600 LINE",
"250 610 LINE",
"90 610 LINE",
"80 600 LINE",
"80 510 LINE",
"70 500 LINE",
"30 500 LINE",
"20 490 LINE",
"20 370 LINE",
"30 360 LINE",
"70 360 LINE",
"80 350 LINE",
"80 130 LINE SMOOTH",
"80 53 OFFCURVE",
"175 0 OFFCURVE",
"270 0 QCURVE SMOOTH"
);
}
);
width = 380;
}
);
note = uni0074;
unicode = 0074;
},
{
color = 10;
glyphname = u;
lastChange = "2018-10-26 16:56:52 +0000";
layers = (
{
layerId = "F6752803-E9E3-41A6-B92A-1FAB6ACE0E29";
paths = (
{
closed = 1;
nodes = (
"341 -8 OFFCURVE",
"410 80 QCURVE",
"410 80 LINE",
"410 0 LINE",
"500 0 LINE",
"500 500 LINE",
"410 500 LINE",
"410 210 LINE SMOOTH",
"410 149 OFFCURVE",
"332 65 OFFCURVE",
"270 60 QCURVE SMOOTH",
"215 56 OFFCURVE",
"150 121 OFFCURVE",
"150 170 QCURVE SMOOTH",
"150 500 LINE",
"60 500 LINE",
"60 170 LINE SMOOTH",
"60 82 OFFCURVE",
"159 -12 OFFCURVE",
"240 -10 QCURVE SMOOTH"
);
}
);
width = 564;
},
{
layerId = "B4B9BE83-58FC-4244-9D0D-7F6B370E71EE";
paths = (
{
closed = 1;
nodes = (
"280 -24 OFFCURVE",
"330 30 QCURVE",
"330 30 LINE",
"330 0 LINE",
"510 0 LINE",
"510 500 LINE",
"270 500 LINE",
"270 160 LINE SMOOTH",
"270 140 OFFCURVE",
"265 117 OFFCURVE",
"250 120 QCURVE SMOOTH",
"240 122 OFFCURVE",
"230 142 OFFCURVE",
"230 160 QCURVE SMOOTH",
"230 500 LINE",
"10 500 LINE",
"10 180 LINE SMOOTH",
"10 92 OFFCURVE",
"103 -15 OFFCURVE",
"200 -20 QCURVE SMOOTH"
);
}
);
width = 515;
}
);
note = uni0075;
unicode = 0075;
},
{
color = 10;
glyphname = v;
lastChange = "2018-10-27 16:25:51 +0000";
layers = (
{
layerId = "F6752803-E9E3-41A6-B92A-1FAB6ACE0E29";
paths = (
{
closed = 1;
nodes = (
"300 0 LINE",
"490 500 LINE",
"390 500 LINE",
"300 250 LINE SMOOTH",
"289 219 OFFCURVE",
"250 80 QCURVE",
"250 80 LINE",
"228 180 OFFCURVE",
"200 250 QCURVE SMOOTH",
"100 500 LINE",
"10 500 LINE",
"190 0 LINE"
);
}
);
width = 493;
},
{
layerId = "B4B9BE83-58FC-4244-9D0D-7F6B370E71EE";
paths = (
{
closed = 1;
nodes = (
"360 0 LINE",
"540 500 LINE",
"390 500 LINE",
"320 320 LINE SMOOTH",
"309 291 OFFCURVE",
"280 130 QCURVE",
"270 130 LINE",
"243 280 OFFCURVE",
"230 320 QCURVE SMOOTH",
"170 500 LINE",
"10 500 LINE",
"190 0 LINE"
);
}
);
width = 549;
}
);
note = uni0076;
unicode = 0076;
},
{
color = 10;
glyphname = w;
lastChange = "2018-10-27 16:25:56 +0000";
layers = (
{
layerId = "F6752803-E9E3-41A6-B92A-1FAB6ACE0E29";
paths = (
{
closed = 1;
nodes = (
"270 0 LINE",
"360 280 LINE SMOOTH",
"378 327 OFFCURVE",
"390 410 QCURVE",
"390 410 LINE",
"404 327 OFFCURVE",
"420 280 QCURVE SMOOTH",
"500 0 LINE",
"600 0 LINE",
"770 500 LINE",
"680 500 LINE",
"590 220 LINE SMOOTH",
"564 138 OFFCURVE",
"550 80 QCURVE",
"550 80 LINE",
"544 137 OFFCURVE",
"520 220 QCURVE SMOOTH",
"440 500 LINE",
"350 500 LINE",
"270 220 LINE SMOOTH",
"247 138 OFFCURVE",
"230 80 QCURVE",
"230 80 LINE",
"212 142 OFFCURVE",
"190 220 QCURVE SMOOTH",
"110 500 LINE",
"10 500 LINE",
"180 0 LINE"
);
}
);
width = 781;
},
{
layerId = "B4B9BE83-58FC-4244-9D0D-7F6B370E71EE";
paths = (
{
closed = 1;
nodes = (
"320 0 LINE",
"380 200 LINE SMOOTH",
"400 265 OFFCURVE",
"410 350 QCURVE",
"410 350 LINE",
"433 268 OFFCURVE",
"450 200 QCURVE SMOOTH",
"500 0 LINE",
"650 0 LINE",
"810 500 LINE",
"660 500 LINE",
"600 310 LINE SMOOTH",
"573 226 OFFCURVE",
"570 160 QCURVE",
"570 160 LINE",
"552 225 OFFCURVE",
"530 310 QCURVE SMOOTH",
"480 500 LINE",
"340 500 LINE",
"290 310 LINE SMOOTH",
"268 226 OFFCURVE",
"260 160 QCURVE",
"250 160 LINE",
"243 224 OFFCURVE",
"220 310 QCURVE SMOOTH",
"170 500 LINE",
"10 500 LINE",
"170 0 LINE"
);
}
);
width = 822;
}
);
note = uni0077;
unicode = 0077;
},
{
color = 10;
glyphname = x;
lastChange = "2018-10-26 16:56:52 +0000";
layers = (
{
layerId = "F6752803-E9E3-41A6-B92A-1FAB6ACE0E29";
paths = (
{
closed = 1;
nodes = (
"120 0 LINE",
"230 130 LINE SMOOTH",
"259 164 OFFCURVE",
"270 210 QCURVE",
"280 210 LINE",
"300 169 OFFCURVE",
"330 130 QCURVE SMOOTH",
"430 0 LINE",
"540 0 LINE",
"330 260 LINE",
"500 500 LINE",
"400 500 LINE",
"320 380 LINE SMOOTH",
"302 353 OFFCURVE",
"280 310 QCURVE",
"270 310 LINE",
"251 349 OFFCURVE",
"230 380 QCURVE SMOOTH",
"150 500 LINE",
"40 500 LINE",
"220 250 LINE",
"20 0 LINE"
);
}
);
width = 556;
},
{
layerId = "B4B9BE83-58FC-4244-9D0D-7F6B370E71EE";
paths = (
{
closed = 1;
nodes = (
"190 0 LINE",
"230 70 LINE SMOOTH",
"255 114 OFFCURVE",
"290 170 QCURVE",
"300 170 LINE",
"332 101 OFFCURVE",
"350 70 QCURVE SMOOTH",
"390 0 LINE",
"580 0 LINE",
"390 260 LINE",
"550 500 LINE",
"390 500 LINE",
"360 450 LINE SMOOTH",
"323 388 OFFCURVE",
"300 350 QCURVE",
"300 350 LINE",
"289 401 OFFCURVE",
"250 450 QCURVE SMOOTH",
"210 500 LINE",
"40 500 LINE",
"200 260 LINE",
"20 0 LINE"
);
}
);
width = 593;
}
);
note = uni0078;
unicode = 0078;
},
{
color = 10;
glyphname = y;
lastChange = "2018-10-26 16:56:52 +0000";
layers = (
{
layerId = "F6752803-E9E3-41A6-B92A-1FAB6ACE0E29";
paths = (
{
closed = 1;
nodes = (
"244 -190 OFFCURVE",
"300 -50 QCURVE SMOOTH",
"520 500 LINE",
"430 500 LINE",
"320 220 LINE SMOOTH",
"273 101 OFFCURVE",
"270 90 QCURVE",
"270 90 LINE",
"277 101 OFFCURVE",
"230 220 QCURVE SMOOTH",
"120 500 LINE",
"20 500 LINE",
"220 30 LINE SMOOTH",
"237 -9 OFFCURVE",
"200 -40 QCURVE",
"190 -122 OFFCURVE",
"120 -110 QCURVE SMOOTH",
"60 -100 LINE",
"60 -180 LINE",
"140 -190 LINE"
);
}
);
width = 519;
},
{
layerId = "B4B9BE83-58FC-4244-9D0D-7F6B370E71EE";
paths = (
{
closed = 1;
nodes = (
"309 -175 OFFCURVE",
"370 -10 QCURVE SMOOTH",
"560 500 LINE",
"410 500 LINE",
"340 300 LINE SMOOTH",
"330 272 OFFCURVE",
"290 120 QCURVE",
"290 120 LINE",
"265 257 OFFCURVE",
"250 300 QCURVE SMOOTH",
"180 500 LINE",
"20 500 LINE",
"180 90 LINE SMOOTH",
"201 36 OFFCURVE",
"210 0 QCURVE",
"207 -50 OFFCURVE",
"130 -50 QCURVE SMOOTH",
"70 -50 LINE",
"70 -180 LINE",
"180 -180 LINE"
);
}
);
width = 557;
}
);
note = uni0079;
unicode = 0079;
},
{
color = 10;
glyphname = z;
lastChange = "2018-10-26 16:56:52 +0000";
layers = (
{
layerId = "F6752803-E9E3-41A6-B92A-1FAB6ACE0E29";
paths = (
{
closed = 1;
nodes = (
"480 0 LINE",
"480 80 LINE",
"260 80 LINE SMOOTH",
"203 80 OFFCURVE",
"150 80 QCURVE",
"150 80 LINE",
"195 132 OFFCURVE",
"220 160 QCURVE SMOOTH",
"470 440 LINE",
"470 500 LINE",
"60 500 LINE",
"60 420 LINE",
"250 420 LINE SMOOTH",
"285 420 OFFCURVE",
"350 420 QCURVE",
"350 420 LINE",
"315 390 OFFCURVE",
"280 350 QCURVE SMOOTH",
"40 70 LINE",
"40 0 LINE"
);
}
);
width = 500;
},
{
layerId = "B4B9BE83-58FC-4244-9D0D-7F6B370E71EE";
paths = (
{
closed = 1;
nodes = (
"510 0 LINE",
"510 120 LINE",
"330 120 LINE SMOOTH",
"313 120 OFFCURVE",
"210 120 QCURVE",
"210 120 LINE",
"295 195 OFFCURVE",
"310 210 QCURVE SMOOTH",
"490 390 LINE",
"490 500 LINE",
"60 500 LINE",
"60 380 LINE",
"200 380 LINE SMOOTH",
"217 380 OFFCURVE",
"320 380 QCURVE",
"320 380 LINE",
"240 310 OFFCURVE",
"230 300 QCURVE SMOOTH",
"40 120 LINE",
"40 0 LINE"
);
}
);
width = 538;
}
);
note = uni007A;
unicode = 007A;
},
{
glyphname = zero;
lastChange = "2018-10-27 04:03:41 +0000";
layers = (
{
layerId = "F6752803-E9E3-41A6-B92A-1FAB6ACE0E29";
paths = (
{
closed = 1;
nodes = (
"404 -10 OFFCURVE",
"540 159 OFFCURVE",
"540 541 OFFCURVE",
"404 710 OFFCURVE",
"176 710 OFFCURVE",
"40 541 OFFCURVE",
"40 159 OFFCURVE",
"176 -10 OFFCURVE"
);
},
{
closed = 1;
nodes = (
"440 80 OFFCURVE",
"140 80 OFFCURVE",
"140 620 OFFCURVE",
"440 620 OFFCURVE"
);
}
);
width = 600;
},
{
layerId = "B4B9BE83-58FC-4244-9D0D-7F6B370E71EE";
paths = (
{
closed = 1;
nodes = (
"420 -10 OFFCURVE",
"560 164 OFFCURVE",
"560 536 OFFCURVE",
"420 710 OFFCURVE",
"180 710 OFFCURVE",
"40 536 OFFCURVE",
"40 164 OFFCURVE",
"180 -10 OFFCURVE"
);
},
{
closed = 1;
nodes = (
"362 590 OFFCURVE",
"420 481 OFFCURVE",
"420 219 OFFCURVE",
"362 110 OFFCURVE",
"238 110 OFFCURVE",
"180 219 OFFCURVE",
"180 481 OFFCURVE",
"238 590 OFFCURVE"
);
}
);
width = 600;
}
);
unicode = 0030;
},
{
glyphname = one;
lastChange = "2018-10-26 23:24:25 +0000";
layers = (
{
layerId = "F6752803-E9E3-41A6-B92A-1FAB6ACE0E29";
paths = (
{
closed = 1;
nodes = (
"300 10 LINE",
"300 690 LINE",
"290 700 LINE",
"200 700 LINE",
"40 540 LINE",
"40 460 LINE",
"50 450 LINE",
"70 450 LINE",
"190 570 LINE",
"200 570 LINE",
"200 10 LINE",
"210 0 LINE",
"290 0 LINE"
);
}
);
width = 380;
},
{
layerId = "B4B9BE83-58FC-4244-9D0D-7F6B370E71EE";
paths = (
{
closed = 1;
nodes = (
"300 10 LINE",
"300 690 LINE",
"290 700 LINE",
"200 700 LINE",
"40 540 LINE",
"40 460 LINE",
"50 450 LINE",
"70 450 LINE",
"190 570 LINE",
"200 570 LINE",
"200 10 LINE",
"210 0 LINE",
"290 0 LINE"
);
}
);
width = 600;
}
);
unicode = 0031;
},
{
glyphname = two;
lastChange = "2018-10-26 23:24:37 +0000";
layers = (
{
layerId = "F6752803-E9E3-41A6-B92A-1FAB6ACE0E29";
paths = (
{
closed = 1;
nodes = (
"510 80 LINE",
"500 90 LINE",
"180 90 LINE",
"180 100 LINE",
"290 200 LINE SMOOTH",
"369 272 OFFCURVE",
"490 391 OFFCURVE",
"490 500 QCURVE SMOOTH",
"490 558 OFFCURVE",
"440 650 OFFCURVE",
"341 710 OFFCURVE",
"270 710 QCURVE SMOOTH",
"161 710 OFFCURVE",
"40 591 OFFCURVE",
"40 490 QCURVE",
"50 480 LINE",
"130 480 LINE",
"140 490 LINE",
"140 555 OFFCURVE",
"198 620 OFFCURVE",
"270 620 QCURVE SMOOTH",
"331 620 OFFCURVE",
"390 550 OFFCURVE",
"390 490 QCURVE SMOOTH",
"390 426 OFFCURVE",
"273 297 OFFCURVE",
"220 250 QCURVE SMOOTH",
"40 90 LINE",
"40 10 LINE",
"50 0 LINE",
"500 0 LINE",
"510 10 LINE"
);
}
);
width = 550;
},
{
layerId = "B4B9BE83-58FC-4244-9D0D-7F6B370E71EE";
paths = (
{
closed = 1;
nodes = (
"510 80 LINE",
"500 90 LINE",
"180 90 LINE",
"180 100 LINE",
"290 200 LINE SMOOTH",
"369 272 OFFCURVE",
"490 391 OFFCURVE",
"490 500 QCURVE SMOOTH",
"490 558 OFFCURVE",
"440 650 OFFCURVE",
"341 710 OFFCURVE",
"270 710 QCURVE SMOOTH",
"161 710 OFFCURVE",
"40 591 OFFCURVE",
"40 490 QCURVE",
"50 480 LINE",
"130 480 LINE",
"140 490 LINE",
"140 555 OFFCURVE",
"198 620 OFFCURVE",
"270 620 QCURVE SMOOTH",
"331 620 OFFCURVE",
"390 550 OFFCURVE",
"390 490 QCURVE SMOOTH",
"390 426 OFFCURVE",
"273 297 OFFCURVE",
"220 250 QCURVE SMOOTH",
"40 90 LINE",
"40 10 LINE",
"50 0 LINE",
"500 0 LINE",
"510 10 LINE"
);
}
);
width = 600;
}
);
unicode = 0032;
},
{
glyphname = period;
lastChange = "2018-10-27 17:53:07 +0000";
layers = (
{
layerId = "F6752803-E9E3-41A6-B92A-1FAB6ACE0E29";
paths = (
{
closed = 1;
nodes = (
"140 110 LINE",
"130 120 LINE",
"30 120 LINE",
"20 110 LINE",
"20 10 LINE",
"30 0 LINE",
"130 0 LINE",
"140 10 LINE"
);
}
);
width = 160;
},
{
layerId = "B4B9BE83-58FC-4244-9D0D-7F6B370E71EE";
paths = (
{
closed = 1;
nodes = (
"160 170 LINE",
"150 180 LINE",
"10 180 LINE",
"0 170 LINE",
"0 10 LINE",
"10 0 LINE",
"150 0 LINE",
"160 10 LINE"
);
}
);
width = 160;
}
);
unicode = 002E;
},
{
glyphname = hyphen;
lastChange = "2018-10-27 17:45:52 +0000";
layers = (
{
layerId = "F6752803-E9E3-41A6-B92A-1FAB6ACE0E29";
paths = (
{
closed = 1;
nodes = (
"320 210 LINE",
"330 220 LINE",
"330 290 LINE",
"320 300 LINE",
"30 300 LINE",
"20 290 LINE",
"20 220 LINE",
"30 210 LINE"
);
}
);
width = 350;
},
{
layerId = "B4B9BE83-58FC-4244-9D0D-7F6B370E71EE";
paths = (
{
closed = 1;
nodes = (
"320 190 LINE",
"330 200 LINE",
"330 310 LINE",
"320 320 LINE",
"30 320 LINE",
"20 310 LINE",
"20 200 LINE",
"30 190 LINE"
);
}
);
width = 350;
}
);
unicode = 002D;
},
